<?xml version="1.0" encoding="UTF-8"?>
<svg width="26px" height="26px" viewBox="0 0 26 26" version="1.1" xmlns="http://www.w3.org/2000/svg" xmlns:xlink="http://www.w3.org/1999/xlink">
    <title>CE6DBDE8-1252-4B60-B85E-62883D4058E0</title>
    <g id="UI" stroke="none" stroke-width="1" fill="none" fill-rule="evenodd">
        <g id="UI-_-Crear-puerto-_-Paso2-_-Desktop-HD" transform="translate(-496.000000, -884.000000)">
            <g id="Group-2" transform="translate(490.000000, 874.000000)">
                <g id="add" transform="translate(8.000000, 12.000000)">
                    <circle id="Oval" stroke="#2C2D32" stroke-width="2" fill="#585A65" cx="11" cy="11" r="12"></circle>
                    <path d="M11,6 C11.5522847,6 12,6.44771525 12,7 L12,11 L16,11 C16.5522847,11 17,11.4477153 17,12 C17,12.5522847 16.5522847,13 16,13 L12,13 L12,17 C12,17.5522847 11.5522847,18 11,18 C10.4477153,18 10,17.5522847 10,17 L10,13 L6,13 C5.44771525,13 5,12.5522847 5,12 C5,11.4477153 5.44771525,11 6,11 L10,11 L10,7 C10,6.44771525 10.4477153,6 11,6 Z" id="Combined-Shape" fill="#FFFFFF"></path>
                </g>
            </g>
        </g>
    </g>
</svg>