<?xml version="1.0" encoding="UTF-8"?>
<svg width="38px" height="33px" viewBox="0 0 38 33" version="1.1" xmlns="http://www.w3.org/2000/svg" xmlns:xlink="http://www.w3.org/1999/xlink">
    <title>6D8AACC2-83B9-4DEA-BBDA-19681B94F5DA</title>
    <g id="UI" stroke="none" stroke-width="1" fill="none" fill-rule="evenodd">
        <g id="UI-_-Incicio-_-Mobile" transform="translate(-141.000000, -2950.000000)" fill="#E7004C" fill-rule="nonzero">
            <path d="M161.945724,2975.74829 L173.397098,2964.61401 L173.397098,2965 L173.397098,2979.34009 C173.397098,2981.35791 171.708242,2983 169.632954,2983 L144.764144,2983 C142.688855,2983 141,2981.35791 141,2979.34009 L141,2960.5 L164.537763,2960.5 L155.400468,2969.38428 C154.88899,2969.88159 154.532688,2970.50635 154.369226,2971.19263 L152.931967,2977.24902 C152.872458,2977.50098 152.950046,2977.76465 153.138366,2977.94775 C153.319977,2978.12434 153.585366,2978.20751 153.856996,2978.14844 L160.085874,2976.75098 L160.086627,2976.75098 C160.791698,2976.59204 161.434247,2976.24561 161.945724,2975.74829 L161.945724,2975.74829 Z M156.491218,2970.44482 C156.184633,2970.74365 155.970701,2971.11865 155.872775,2971.52954 L154.712723,2976.41699 L159.737858,2975.28979 C160.161955,2975.19458 160.547635,2974.98584 160.854974,2974.68774 L176.04714,2959.91626 L171.683384,2955.67334 L156.491218,2970.44482 Z M166.080482,2959 L141,2959 L141,2953.65991 C141,2951.64209 142.688855,2950 144.764144,2950 L169.632954,2950 C171.174543,2950 172.487511,2950.91324 173.067161,2952.20679 C170.196838,2954.99763 168.940121,2956.21955 166.080482,2959 Z M147.170876,2955.25 C147.170876,2954.83545 146.825873,2954.5 146.399516,2954.5 L144.856797,2954.5 C144.43044,2954.5 144.085438,2954.83545 144.085438,2955.25 C144.085438,2955.66455 144.43044,2956 144.856797,2956 L146.399516,2956 C146.825873,2956 147.170876,2955.66455 147.170876,2955.25 Z M151.799033,2955.25 C151.799033,2954.83545 151.45403,2954.5 151.027673,2954.5 L149.484954,2954.5 C149.058597,2954.5 148.713595,2954.83545 148.713595,2955.25 C148.713595,2955.66455 149.058597,2956 149.484954,2956 L151.027673,2956 C151.45403,2956 151.799033,2955.66455 151.799033,2955.25 Z M156.427189,2955.25 C156.427189,2954.83545 156.082187,2954.5 155.65583,2954.5 L154.113111,2954.5 C153.686754,2954.5 153.341752,2954.83545 153.341752,2955.25 C153.341752,2955.66455 153.686754,2956 154.113111,2956 L155.65583,2956 C156.082187,2956 156.427189,2955.66455 156.427189,2955.25 Z M178.774016,2956.20435 L175.501764,2953.02197 C175.3722,2952.896 175.173334,2952.82422 174.956389,2952.82422 C174.738691,2952.82422 174.539825,2952.896 174.410261,2953.02197 L172.774135,2954.61279 L177.13789,2958.85571 L178.774016,2957.26489 C178.921659,2957.12061 179,2956.9375 179,2956.73462 C179,2956.53174 178.921659,2956.34863 178.774016,2956.20435 L178.774016,2956.20435 Z" id="blog"></path>
        </g>
    </g>
</svg>