<?xml version="1.0" encoding="UTF-8"?>
<svg width="14px" height="13px" viewBox="0 0 14 13" version="1.1" xmlns="http://www.w3.org/2000/svg" xmlns:xlink="http://www.w3.org/1999/xlink">
    <title>64337924-FBC5-4157-AB32-E688F04D7740</title>
    <g id="UI" stroke="none" stroke-width="1" fill="none" fill-rule="evenodd">
        <g id="UI-_-Puerto-de-montaña-(altimetria)-_-Desktop-HD" transform="translate(-1028.000000, -433.000000)" fill="#909199" fill-rule="nonzero">
            <g id="Group-19" transform="translate(250.000000, 350.000000)">
                <g id="Group-18" transform="translate(778.448867, 23.000000)">
                    <path d="M11.5456994,66.8021828 L13.0637549,69.4321163 C13.115477,69.5217016 13.1150744,69.6332527 13.0626996,69.7283517 C13.0324883,69.7831944 12.9873781,69.8282607 12.9337634,69.8592151 C12.8943938,69.8819452 12.8504607,69.8970362 12.8044822,69.9028438 L12.8044822,69.9028438 L10.6085275,70.1795376 L9.27092627,71.9429432 C9.20473636,72.030143 9.09922937,72.0815227 8.99070294,72.07932 C8.88214858,72.0771574 8.78536032,72.0217194 8.73362791,71.9321163 L8.73362791,71.9321163 L7.564,69.906 L7.59159699,69.901023 C7.60540172,69.8983697 7.61918943,69.8956652 7.63296351,69.8929131 L7.67607052,69.8841664 L7.67607052,69.8841664 C7.70716098,69.8776812 7.73814244,69.8708963 7.76906941,69.8638662 C7.77814314,69.8617953 7.78727136,69.8598879 7.79631784,69.8577897 C7.8343294,69.8489612 7.87217746,69.839615 7.90991654,69.8299962 C7.92449445,69.8262632 7.93899061,69.8223666 7.95351402,69.8185518 C7.97852808,69.8119577 8.00346039,69.8052 8.02833821,69.7982789 C8.04397881,69.7938919 8.05959216,69.7895321 8.07517826,69.7850361 C8.10185447,69.7773247 8.12842169,69.7693682 8.15493441,69.7612753 C8.16714171,69.7575423 8.1794035,69.7539727 8.1915563,69.7501579 C8.22738798,69.7389315 8.26305618,69.7272691 8.29858813,69.7153343 C8.31441947,69.7100208 8.33014181,69.7044893 8.3458914,69.6990396 C8.36807162,69.6913555 8.39022459,69.6835897 8.41224132,69.6756058 L8.46254192,69.6572403 L8.46254192,69.6572403 L8.53014528,69.6314904 L8.53014528,69.6314904 C8.54496842,69.625741 8.55984606,69.6201823 8.57458746,69.6143238 C8.60815753,69.6009993 8.64153685,69.5872933 8.67477994,69.5733147 C8.69183745,69.5661484 8.70881322,69.5587368 8.725789,69.5514069 C8.74510813,69.5430688 8.76440002,69.534649 8.78361016,69.526093 C8.80134889,69.5181909 8.81906037,69.5102071 8.8366901,69.5021415 C8.855764,69.4933947 8.87472891,69.4844299 8.89369381,69.4754651 C8.91342168,69.4661461 8.93312229,69.4568544 8.95271391,69.4472901 C8.98121577,69.4333934 9.00955413,69.4193059 9.03775626,69.4049459 L9.06438819,69.3912024 L9.06438819,69.3912024 L9.09091794,69.3773158 C9.10786647,69.36846 9.12481499,69.3595498 9.14165452,69.3505032 C9.15985647,69.3407482 9.17800392,69.3309115 9.19609688,69.3209385 C9.21260943,69.3118375 9.22898573,69.3026275 9.24536204,69.293363 C9.26825072,69.2804472 9.29105765,69.2674496 9.31375559,69.2542068 C9.33803394,69.2400376 9.3622578,69.2257866 9.38629091,69.2112631 C9.40438387,69.2003364 9.42225884,69.1891917 9.44021555,69.1780471 C9.45528393,69.1687008 9.47037956,69.1593546 9.48533895,69.1498448 L9.53937259,69.1152119 L9.53937259,69.1152119 C9.55419573,69.1055931 9.56893713,69.0958109 9.58367853,69.0860287 C10.4313129,68.5236619 11.1148792,67.7328846 11.5456994,66.8021828 Z M3.51858699,69.0860559 C3.53332839,69.0958109 3.54804254,69.1055931 3.56289293,69.1152391 L3.61692657,69.1498721 L3.61692657,69.1498721 C3.6319132,69.1593818 3.64698159,69.1687281 3.66204997,69.1780743 C3.68000668,69.1891917 3.69788165,69.2003636 3.71597461,69.2112903 C3.74000772,69.2258138 3.76423157,69.2400921 3.78850992,69.2542341 C3.81118062,69.2674496 3.8340148,69.2804744 3.85690348,69.2933902 C3.87330704,69.3026548 3.88968334,69.3118648 3.90616864,69.3209658 L3.960611,69.3505305 L3.960611,69.3505305 C3.97745053,69.359577 3.99439905,69.3684873 4.01134758,69.3773431 C4.02905906,69.3866076 4.04671604,69.3958993 4.06453651,69.4049731 C4.09273863,69.4193331 4.1211315,69.4334206 4.14957886,69.4473174 C4.16917048,69.4568816 4.18887109,69.4661734 4.20859895,69.4754924 C4.22756386,69.4844572 4.24652877,69.4933947 4.26560267,69.5021687 C4.2832324,69.5102616 4.30094388,69.5182181 4.31868261,69.5261202 C4.33792,69.5347035 4.35721188,69.5431233 4.37655827,69.5514614 C4.39350679,69.5587913 4.41045531,69.5662029 4.42748558,69.5733147 C4.46075591,69.5872933 4.49413524,69.6009993 4.52773255,69.6143238 C4.5425012,69.6201823 4.55735159,69.625741 4.57217474,69.6314904 C4.59465469,69.6401827 4.6171619,69.6488205 4.63977809,69.6572403 C4.65648138,69.663453 4.67329366,69.6695567 4.69007869,69.6756058 L4.75642862,69.6990396 L4.75642862,69.6990396 C4.77217821,69.7044893 4.7879278,69.7100208 4.80373189,69.7153343 C4.83926384,69.7272691 4.87490478,69.7389043 4.91076372,69.7501579 C4.92291652,69.7539727 4.93520556,69.7575423 4.94738561,69.7612753 L5.02714176,69.7850361 L5.02714176,69.7850361 C5.04272786,69.7895321 5.05834121,69.7939191 5.07398181,69.7982789 C5.09885962,69.8052273 5.12379193,69.8119577 5.14880599,69.8185518 C5.16335665,69.8223939 5.17782557,69.8262904 5.19240348,69.8299962 C5.2301153,69.8396422 5.26796337,69.848934 5.30600218,69.8577897 C5.31504866,69.8598879 5.32420413,69.8617953 5.33325061,69.8638662 C5.36415032,69.8708963 5.39515904,69.8776812 5.42624949,69.8841664 C5.44060942,69.8871637 5.45499659,69.890052 5.46935651,69.8929131 C5.49231331,69.8975227 5.51530796,69.9019619 5.53837199,69.9062624 L4.36863761,71.9321163 C4.3169052,72.0217194 4.22011694,72.0771574 4.11156258,72.07932 C4.00303615,72.0815227 3.89752916,72.030143 3.83133925,71.9429432 L2.49373803,70.1795376 L0.297783361,69.9028438 C0.25180479,69.8970362 0.20787175,69.8819452 0.168502092,69.8592151 C0.114887463,69.8282607 0.0697772491,69.7831944 0.0395659126,69.7283517 C-0.0128088984,69.6332527 -0.0132114987,69.5217016 0.0385105927,69.4321163 L1.55662177,66.8023303 C1.98744521,67.7329799 2.67098911,68.5237134 3.51858699,69.0860559 Z M6.55112161,60 C9.03241804,60 11.0511328,62.0186801 11.0511328,64.4999889 C11.0511328,66.0649804 10.2479407,67.4456874 9.03230657,68.2522053 L9.03230657,68.2522053 L8.99605625,68.2760824 C8.9813644,68.2856021 8.96665024,68.2950549 8.95184692,68.3044185 C8.93960742,68.3121992 8.92725645,68.3198461 8.91492777,68.3274931 C8.90023591,68.3366114 8.88561094,68.3457298 8.87080761,68.3546698 C8.85114415,68.3665526 8.83132464,68.3782125 8.81146053,68.3898056 L8.81146053,68.3898056 L8.75550217,68.4218424 C8.74210337,68.4294225 8.72870458,68.436958 8.71519431,68.4444043 C8.70039098,68.452564 8.68554307,68.4606122 8.67065056,68.4685936 C8.65687276,68.4759953 8.64300579,68.4832855 8.62913882,68.4905311 C8.6146699,68.4981112 8.60022328,68.5057135 8.58564289,68.5131375 C8.56256843,68.5248866 8.53938249,68.5364128 8.51606279,68.5477828 C8.50003329,68.5556081 8.4839146,68.5632105 8.46777362,68.5708351 L8.46777362,68.5708351 L8.42113422,68.5926612 L8.42113422,68.5926612 L8.37770518,68.6122579 C8.36198779,68.6192583 8.34620352,68.6261472 8.33039695,68.6329693 L8.33039695,68.6329693 L8.28866227,68.6508939 L8.28866227,68.6508939 L8.20668661,68.6844468 L8.20668661,68.6844468 L8.17032482,68.6984922 C8.15193213,68.705604 8.13351715,68.7126713 8.11501299,68.7195603 C8.10132437,68.7246434 8.08759116,68.729615 8.07385795,68.7345866 C8.05584426,68.7411188 8.0377191,68.7474727 8.01957165,68.7537597 C8.00668562,68.7582185 7.99382188,68.7627443 7.98086897,68.7670917 C7.95179737,68.7768566 7.92261431,68.7863985 7.89329747,68.7955838 C7.88335427,68.798705 7.8733219,68.8016255 7.86333411,68.8046798 C7.84164188,68.8113012 7.81990507,68.8178111 7.79807908,68.8241204 C7.78532681,68.827799 7.77255225,68.8313661 7.7597554,68.8349554 C7.73940082,68.8406182 7.71900166,68.8461472 7.69853561,68.8515424 C7.68665282,68.8546636 7.67479232,68.8578517 7.66286494,68.860906 C7.63198752,68.8687759 7.60102092,68.8764228 7.56992055,68.8836462 C7.56251889,68.8853628 7.55505034,68.8869234 7.54762638,68.8886178 C7.5223225,68.8943697 7.49697403,68.899921 7.47153638,68.905227 C7.45983194,68.9076571 7.44803833,68.9100426 7.43626701,68.9123835 C7.4137276,68.9168869 7.39114361,68.9212343 7.36849273,68.9254033 C7.35750171,68.9274321 7.34653298,68.9294832 7.33551966,68.9314451 L7.33551966,68.9314451 L7.23775973,68.9476976 L7.23775973,68.9476976 L7.22344687,68.949771 C7.19459821,68.9541184 7.16570497,68.9581982 7.13667796,68.961966 C7.12570923,68.9633928 7.11471821,68.9647082 7.10374948,68.9660681 C7.07953801,68.9690332 7.05525966,68.97182 7.03091443,68.9744062 C7.02043617,68.9755209 7.0099802,68.9766802 6.99945735,68.977728 C6.96568169,68.9810945 6.93183914,68.9841711 6.89786282,68.9867795 C6.89556652,68.9869578 6.89322564,68.9870693 6.89095163,68.9872477 L6.89095163,68.9872477 L6.77879803,68.99417 L6.77879803,68.99417 L6.76302769,68.9948946 C6.73765693,68.9960539 6.71224157,68.9970349 6.68675934,68.9977929 C6.67639255,68.9980827 6.66604805,68.9984394 6.65565897,68.9986846 L6.65565897,68.9986846 L6.5511662,69 C6.51620894,69 6.48143004,68.9994649 6.44667343,68.9986846 C6.43630664,68.9984617 6.42593985,68.998105 6.41557306,68.9977929 C6.39006854,68.9970349 6.36467548,68.9960762 6.33930471,68.9948946 C6.32878186,68.9944041 6.31828131,68.9939583 6.30778076,68.9933786 L6.21138077,68.9872477 C6.20908447,68.9870693 6.20676588,68.9869578 6.20446958,68.9867795 C6.17049326,68.9841711 6.13662842,68.9810945 6.10287505,68.977728 C6.0923745,68.9766802 6.08191853,68.9755209 6.07141798,68.9744062 C6.04707274,68.97182 6.02281669,68.9690555 5.99858293,68.9660681 C5.98761419,68.9647304 5.97660088,68.9633928 5.96565444,68.961966 C5.93667202,68.9581536 5.90773419,68.9541184 5.87888553,68.949771 L5.87888553,68.949771 L5.86457268,68.9476976 L5.86457268,68.9476976 L5.76681274,68.9314451 C5.75579942,68.9295055 5.7448084,68.9274321 5.73383967,68.9254033 L5.69989122,68.9190272 L5.69989122,68.9190272 L5.6660431,68.9123835 C5.65429407,68.9100426 5.64252275,68.9076794 5.63077372,68.905227 C5.60533608,68.899921 5.57996531,68.8943697 5.55468373,68.8886178 C5.54728206,68.8869234 5.53979122,68.8853628 5.53238956,68.8836462 C5.5012669,68.8764005 5.4703003,68.8687982 5.43944517,68.860906 C5.42751778,68.857874 5.41567958,68.8546859 5.40377449,68.8515424 C5.38330845,68.8461472 5.36290928,68.8406405 5.34255471,68.8349554 L5.34255471,68.8349554 L5.30423103,68.8241204 L5.30423103,68.8241204 L5.238976,68.8046798 C5.2290105,68.8016255 5.21895583,68.798705 5.20901263,68.7955838 L5.20901263,68.7955838 L5.12144114,68.7670917 C5.10851052,68.7627443 5.09562449,68.7582185 5.08273846,68.7537597 C5.0646133,68.7474727 5.04648814,68.7410965 5.02845216,68.7345866 C5.01471895,68.7296373 5.00096345,68.7246434 4.98729712,68.7195603 C4.96879296,68.7126713 4.95037798,68.705604 4.93198529,68.6984922 L4.93198529,68.6984922 L4.8956235,68.6844468 L4.8956235,68.6844468 L4.81360325,68.6508939 C4.7996694,68.6450751 4.78580242,68.639011 4.77193545,68.6330139 C4.75610659,68.6261918 4.74032232,68.6193029 4.72458263,68.6122802 C4.71006913,68.6058148 4.69557792,68.5993049 4.68115359,68.5926835 C4.66554767,68.5855048 4.65003093,68.5781922 4.63451419,68.5708574 C4.61837321,68.5632328 4.60225453,68.5556304 4.58622502,68.5478051 L4.58622502,68.5478051 L4.51664492,68.5131598 C4.50206453,68.5057358 4.48761791,68.4981335 4.4731267,68.4905534 L4.43161496,68.4686158 L4.43161496,68.4686158 L4.38707121,68.4444266 C4.37358324,68.4369803 4.36018444,68.4294448 4.34676335,68.4218647 L4.34676335,68.4218647 L4.29080499,68.3898279 C4.27094088,68.3782571 4.25112136,68.3665749 4.23145791,68.3546921 C4.21665458,68.3457521 4.2020296,68.3366114 4.18733775,68.3275154 C4.17500907,68.3198684 4.1626804,68.3122215 4.1504186,68.3044408 L4.1504186,68.3044408 L4.10620927,68.2761047 C4.09405894,68.2682126 4.08202009,68.2602089 4.06995895,68.2522276 C2.85432479,67.4457097 2.05113276,66.0650027 2.05113276,64.5000111 C2.05113276,62.0186801 4.06982518,60 6.55112161,60 Z" id="coefficient"></path>
                </g>
            </g>
        </g>
    </g>
</svg>