<?xml version="1.0" encoding="UTF-8"?>
<svg width="22px" height="22px" viewBox="0 0 22 22" version="1.1" xmlns="http://www.w3.org/2000/svg" xmlns:xlink="http://www.w3.org/1999/xlink">
    <title>5B440CC3-9A56-4007-8C32-C5748A31A988</title>
    <g id="UI" stroke="none" stroke-width="1" fill="none" fill-rule="evenodd">
        <g id="UI-_-Mi-perfil-_-Puertos-_-Desktop-HD" transform="translate(-899.000000, -29.000000)">
            <g id="create" transform="translate(899.000000, 29.000000)">
                <circle id="Oval" fill="#FFFFFF" cx="11" cy="11" r="11"></circle>
                <path d="M11,5 C11.5522847,5 12,5.44771525 12,6 L12,10 L16,10 C16.5522847,10 17,10.4477153 17,11 C17,11.5522847 16.5522847,12 16,12 L12,12 L12,16 C12,16.5522847 11.5522847,17 11,17 C10.4477153,17 10,16.5522847 10,16 L10,12 L6,12 C5.44771525,12 5,11.5522847 5,11 C5,10.4477153 5.44771525,10 6,10 L10,10 L10,6 C10,5.44771525 10.4477153,5 11,5 Z" id="Combined-Shape" fill="#E7004C"></path>
            </g>
        </g>
    </g>
</svg>