<?xml version="1.0" encoding="UTF-8"?>
<svg width="12px" height="12px" viewBox="0 0 12 12" version="1.1" xmlns="http://www.w3.org/2000/svg" xmlns:xlink="http://www.w3.org/1999/xlink">
    <title>6BEC2192-9876-4332-A290-9A1DB5502FE8</title>
    <g id="UI" stroke="none" stroke-width="1" fill="none" fill-rule="evenodd">
        <g id="UI-_-Crear-puerto-_-Paso2-_-Desktop-HD" transform="translate(-920.000000, -1228.000000)" fill="#585A65">
            <g id="Group-2" transform="translate(490.000000, 874.000000)">
                <g id="Group-6" transform="translate(0.000000, 336.000000)">
                    <path d="M436,16 C436.552285,16 437,16.4477153 437,17 L437,23 L443,23 C443.552285,23 444,23.4477153 444,24 C444,24.5522847 443.552285,25 443,25 L437,25 L437,31 C437,31.5522847 436.552285,32 436,32 C435.447715,32 435,31.5522847 435,31 L435,25 L429,25 C428.447715,25 428,24.5522847 428,24 C428,23.4477153 428.447715,23 429,23 L435,23 L435,17 C435,16.4477153 435.447715,16 436,16 Z" id="Combined-Shape" transform="translate(436.000000, 24.000000) rotate(45.000000) translate(-436.000000, -24.000000) "></path>
                </g>
            </g>
        </g>
    </g>
</svg>