<?xml version="1.0" encoding="UTF-8"?>
<svg width="12px" height="12px" viewBox="0 0 12 12" version="1.1" xmlns="http://www.w3.org/2000/svg" xmlns:xlink="http://www.w3.org/1999/xlink">
    <title>CF655517-8662-4D19-AC6D-9E28E3C8DD76</title>
    <g id="UI" stroke="none" stroke-width="1" fill="none" fill-rule="evenodd">
        <g id="UI-_-Puerto-de-montaña-(altimetria)-_-Desktop-HD" transform="translate(-273.000000, -433.000000)" fill="#909199" fill-rule="nonzero">
            <g id="Group-19" transform="translate(250.000000, 350.000000)">
                <g id="Group-9" transform="translate(23.000000, 80.000000)">
                    <path d="M7.50087862,6.64798181 L6.95259171,7.67878108 L6.95259171,7.67878108 L5.14150665,3.34700836 C5.02120372,3.05926651 4.69041807,2.92353045 4.40267622,3.04383339 C4.25865714,3.1040468 4.14598679,3.22118896 4.09142164,3.36744146 L0.0357767644,14.2378995 C-0.0732412762,14.5301036 0.0752603612,14.8553584 0.367464455,14.9643764 C0.430609658,14.9879352 0.497462255,15 0.564859079,15 L11.4352884,15 C11.7471669,15 11.9999943,14.7471726 11.9999943,14.4352941 C11.9999943,14.3543319 11.9825852,14.2743162 11.9489473,14.2006726 L8.51310287,6.67854949 C8.38352497,6.39486352 8.04850841,6.26993423 7.76482243,6.39951213 C7.65192654,6.45107905 7.55916394,6.5384033 7.50087862,6.64798181 Z M7.99999999,7.06990173 L9.57828166,10.6634144 L8.6282827,9.61466537 C8.57593759,9.55687912 8.48665849,9.5524682 8.42887224,9.60481331 C8.42568225,9.60770293 8.42262607,9.61073693 8.41971328,9.6139058 L7.98845291,10.0830808 C7.9356883,10.1404843 7.84637944,10.1442448 7.78897599,10.0914802 C7.77971543,10.082968 7.77163401,10.0732564 7.7649463,10.0626032 L7.29259426,9.31017157 C7.25207783,9.24563104 7.16765309,9.22489251 7.10184433,9.26331477 L6.53418249,9.59474256 L6.53418249,9.59474256 L7.99999999,7.06990173 Z M4.63923988,3.96512462 L5.83456249,6.82290781 L5.52451124,7.54012342 C5.49357231,7.61169187 5.41047365,7.64462859 5.33890521,7.61368966 C5.31639549,7.60395874 5.29680873,7.58853222 5.28207407,7.56892946 L4.72084527,6.82227993 C4.67399719,6.75995403 4.5854942,6.74740677 4.52316829,6.79425484 C4.50538228,6.80762393 4.49100808,6.8250077 4.48121799,6.84498841 L3.68285674,8.47437305 C3.64855021,8.54438964 3.56397962,8.57333836 3.49396303,8.53903183 C3.46650135,8.52557624 3.44415131,8.50356742 3.43027485,8.47631599 L3.17823094,7.98133709 L3.17823094,7.98133709 L4.63923988,3.96512462 Z" id="desnivel-acumulado"></path>
                </g>
            </g>
        </g>
    </g>
</svg>