<?xml version="1.0" encoding="UTF-8"?>
<svg width="12px" height="12px" viewBox="0 0 12 12" version="1.1" xmlns="http://www.w3.org/2000/svg" xmlns:xlink="http://www.w3.org/1999/xlink">
    <title>67C8CAC2-35F9-4D0C-962A-B04AC5E4C1D6</title>
    <g id="UI" stroke="none" stroke-width="1" fill="none" fill-rule="evenodd">
        <g id="UI-_-Puerto-de-montaña-(altimetria)-_-Desktop-HD" transform="translate(-557.000000, -433.000000)" fill="#909199" fill-rule="nonzero">
            <g id="Group-19" transform="translate(250.000000, 350.000000)">
                <g id="Group-14" transform="translate(293.000000, 23.000000)">
                    <g id="Group-21" transform="translate(14.000000, 57.000000)">
                        <path d="M2.47058824,8.64637453 C3.83505644,8.64637453 4.94117647,9.75236052 4.94117647,11.1166634 C4.94117647,11.9763461 4.20544992,13.2311709 2.73399681,14.8811379 C2.72504808,14.8911723 2.71553327,14.9006871 2.70549891,14.9096359 C2.58080827,15.020836 2.39908624,15.0273478 2.2680123,14.9353295 L2.20719453,14.881138 L1.99198563,14.6366134 C0.663995211,13.1066798 0,11.9333632 0,11.1166634 C0,9.75236052 1.10612003,8.64637453 2.47058824,8.64637453 Z M9.50246223,7.17578554 L9.56323458,7.24358595 L9.57456655,7.25449 L9.57456655,7.25449 C9.61459725,7.29179142 9.65881105,7.32164553 9.70553566,7.34412001 C9.27541132,7.51930028 8.69898363,7.8128617 8.23258122,8.37109938 C8.17137462,8.44435764 7.87134904,8.87159229 8.04761216,9.3790728 C8.14193088,9.65056303 8.12991822,9.52915598 8.23258122,9.79759219 C8.30917804,9.99793595 8.3699905,10.2019934 8.4168011,10.4102287 C8.46361171,10.6183908 8.48489865,10.834591 8.49412127,11.0466867 C8.52129829,11.6676057 8.3936283,12.2942175 8.07497001,12.8412781 C7.77036523,13.364273 7.31279931,13.7938394 6.78072908,14.1113598 C6.24819385,14.4292223 5.65386449,14.6436634 5.04400909,14.7856387 C4.55898005,14.898534 4.0626133,14.9661417 3.56439775,15 L3.658,14.991 L3.84485845,14.7717358 C4.4602596,14.0350034 4.93338254,13.3777287 5.26295867,12.7941721 C5.65806071,12.7068692 6.04068021,12.5614268 6.35633359,12.3222656 C6.56783383,12.1619906 6.73882687,11.959228 6.85215917,11.7260719 C6.97401659,11.4753001 7.01669381,11.1990945 7.04632502,10.925723 C7.05578014,10.8384024 7.05074258,10.6368371 7.05076841,10.6360797 C7.04524001,10.5718964 7.04017661,10.5076642 7.03193567,10.4437985 C7.01281875,10.3019454 6.98156002,10.1619246 6.94552205,10.0231255 C6.87070775,9.73509471 6.7972459,9.29054424 6.8333575,9.02255452 C6.99379761,7.83190374 8.55952177,7.37047369 9.50246223,7.17578554 Z M2.47058824,9.91680879 C1.80892529,9.91680879 1.27058824,10.4543649 1.27058824,11.1150679 C1.27058824,11.7757709 1.80892529,12.313327 2.47058824,12.313327 C3.13227576,12.313327 3.67058824,11.7757709 3.67058824,11.1150679 C3.67058824,10.4543649 3.13227576,9.91680879 2.47058824,9.91680879 Z M10.2352941,3 C11.2099143,3 12,3.86809651 12,4.77753944 C12,5.31580315 11.5363685,6.08644889 10.6091056,7.08947666 L10.4174712,7.29318064 L10.409554,7.30109784 C10.3257016,7.38130638 10.2008948,7.39221283 10.1059213,7.33538944 L10.0530836,7.2931804 L9.86146853,7.08946138 C8.934215,6.08644106 8.47058824,5.31580042 8.47058824,4.77753944 C8.47058824,3.86809651 9.26067397,3 10.2352941,3 Z M10.2352941,3.91753586 C9.76823792,3.91753586 9.38823529,4.29749244 9.38823529,4.76449204 C9.38823529,5.23149164 9.76823792,5.61144822 10.2352941,5.61144822 C10.7023677,5.61144822 11.0823529,5.23149164 11.0823529,4.76449204 C11.0823529,4.29749244 10.7023677,3.91753586 10.2352941,3.91753586 Z" id="distancia"></path>
                    </g>
                </g>
            </g>
        </g>
    </g>
</svg>