<?xml version="1.0" encoding="UTF-8"?>
<svg width="48px" height="48px" viewBox="0 0 48 48" version="1.1" xmlns="http://www.w3.org/2000/svg" xmlns:xlink="http://www.w3.org/1999/xlink">
    <title>C221B09E-0684-445D-A7B0-63C8D59FEC83</title>
    <g id="UI" stroke="none" stroke-width="1" fill="none" fill-rule="evenodd">
        <g id="UI-_-Mi-perfil-_-Actividad-_-Desktop-HD" transform="translate(-495.000000, -417.000000)">
            <g id="Group-7" transform="translate(250.000000, 410.000000)">
                <g id="hidde" transform="translate(245.000000, 7.000000)">
                    <polygon id="Shape" points="0 0 48 0 48 48 0 48"></polygon>
                    <circle id="Oval" fill="#3B3C43" cx="24" cy="24" r="20"></circle>
                    <path d="M15.693841,23.62281 C17.5970101,20.4396277 20.702483,18.5392603 24.0000456,18.5392603 C25.1633074,18.5392603 26.3026658,18.7758184 27.3737337,19.221765 L29.9637249,16.6741612 C30.1998034,16.4419463 30.5860744,16.4419463 30.8221529,16.6741612 C31.0582314,16.906376 31.0582314,17.2863581 30.8221529,17.5185729 L28.5129925,19.7899747 L26.8539029,21.421912 L25.9957073,22.2659972 L21.940177,26.2551555 L21.0820146,27.0992734 L19.407089,28.7467875 L16.7851272,31.3258388 C16.5490487,31.5580537 16.1627445,31.5580537 15.926666,31.3258388 C15.6905875,31.093624 15.6905875,30.7136746 15.926666,30.4814597 L18.395713,28.0528206 C17.3532958,27.239889 16.4329516,26.1974855 15.693841,24.9614662 C15.4353863,24.5299208 15.4353863,24.0545187 15.693841,23.62281 Z M25.8559393,20.7147196 C25.2988259,20.433815 24.6679443,20.2751735 24.0000456,20.2751735 C21.7482201,20.2751735 19.9162961,22.0772798 19.9162961,24.2922524 C19.9162961,24.949155 20.0776104,25.5696792 20.3631222,26.1176423 L21.2861556,25.2097151 C21.1852969,24.9219528 21.1304852,24.6132582 21.1304852,24.2922198 C21.1304852,22.7357499 22.417845,21.4694261 24.0000456,21.4694261 C24.3264588,21.4694261 24.6403226,21.5233733 24.9329059,21.6226141 L25.8559393,20.7147196 Z M29.5325356,20.4758429 L27.5927811,22.3838844 C27.9058482,22.9518981 28.0837952,23.6020083 28.0837952,24.2922524 C28.0837952,26.5070618 26.2519044,28.3091354 24.0000788,28.3091354 C23.2983504,28.3091354 22.6374568,28.1340681 22.0599924,27.8261246 L20.5366537,29.3245326 C21.6337497,29.7949057 22.8042156,30.0450159 24.0000788,30.0450159 C27.2976415,30.0450159 30.4027824,28.1446812 32.3062835,24.9614662 C32.5645722,24.5299208 32.5645722,24.0545187 32.3062835,23.6227774 C31.5503078,22.3584456 30.6045663,21.2967426 29.5325356,20.4758429 Z M26.6795083,23.2821781 L22.9731988,26.9278308 C23.2922086,27.0485264 23.6383751,27.1148502 24.0000456,27.1148502 C25.5822463,27.1148502 26.8696061,25.8485264 26.8696061,24.2922524 C26.8696061,23.9364683 26.8021788,23.595967 26.6795083,23.2821781 L26.6795083,23.2821781 Z" fill="#909199" fill-rule="nonzero"></path>
                </g>
            </g>
        </g>
    </g>
</svg>