<?xml version="1.0" encoding="UTF-8"?>
<svg width="20px" height="22px" viewBox="0 0 20 22" version="1.1" xmlns="http://www.w3.org/2000/svg" xmlns:xlink="http://www.w3.org/1999/xlink">
    <title>9682B60B-11A1-47C4-B72B-EB757E83B6F1</title>
    <g id="UI" stroke="none" stroke-width="1" fill="none" fill-rule="evenodd">
        <g id="UI-_-Incicio-_-Mobile" transform="translate(-18.000000, -315.000000)" fill="#E7004C">
            <g id="Suggestions" transform="translate(8.000000, 253.000000)">
                <path d="M20,62 C25.5228475,62 30,66.6705046 30,72.4318639 C30,76.1710368 26.8409068,79.9775389 20.5227205,83.8513702 C20.2020132,84.0480035 19.798084,84.0480038 19.4773764,83.851371 L19.4773764,83.851371 L19.0783491,83.6042382 C13.0261164,79.8156184 10,76.0914936 10,72.4318639 C10,66.6705046 14.4771525,62 20,62 Z M20,68.0457393 C17.790861,68.0457393 16,69.8502524 16,72.0762322 C16,74.3022119 17.790861,76.106725 20,76.106725 C22.209139,76.106725 24,74.3022119 24,72.0762322 C24,69.8502524 22.209139,68.0457393 20,68.0457393 Z" id="icon-location"></path>
            </g>
        </g>
    </g>
</svg>