<?xml version="1.0" encoding="UTF-8"?>
<svg width="14px" height="14px" viewBox="0 0 14 14" version="1.1" xmlns="http://www.w3.org/2000/svg" xmlns:xlink="http://www.w3.org/1999/xlink">
    <title>84EB1B03-E3B9-4984-AEB3-D2260DA79FF7</title>
    <g id="UI" stroke="none" stroke-width="1" fill="none" fill-rule="evenodd">
        <g id="UI-_-Mi-perfil-_-Puertos-_-Desktop-HD" transform="translate(-1074.000000, -33.000000)" fill="#FFFFFF" fill-rule="nonzero">
            <g id="Group-5" transform="translate(1074.000000, 29.000000)">
                <path d="M6,4 C9.3137085,4 12,6.6862915 12,10 C12,11.5920863 11.3799057,13.0393418 10.3680596,14.113424 C10.3827754,14.120469 10.3958266,14.1298715 10.4085996,14.1398031 L10.4714045,14.1952621 L13.1380712,16.8619288 C13.3984207,17.1222783 13.3984207,17.5443883 13.1380712,17.8047379 C12.8977485,18.0450605 12.5195945,18.0635469 12.258067,17.8601969 L12.1952621,17.8047379 L9.52859548,15.1380712 C9.47142594,15.0809017 9.42681013,15.0159322 9.39474804,14.9465884 C8.43000452,15.6113738 7.26038651,16 6,16 C2.6862915,16 3.0375702e-13,13.3137085 3.0375702e-13,10 C3.0375702e-13,6.6862915 2.6862915,4 6,4 Z M6,5.33333333 C3.42267117,5.33333333 1.33333333,7.42267117 1.33333333,10 C1.33333333,12.5773288 3.42267117,14.6666667 6,14.6666667 C8.57732883,14.6666667 10.6666667,12.5773288 10.6666667,10 C10.6666667,7.42267117 8.57732883,5.33333333 6,5.33333333 Z" id="Search-button"></path>
            </g>
        </g>
    </g>
</svg>