<?xml version="1.0" encoding="UTF-8"?>
<svg width="16px" height="16px" viewBox="0 0 16 16" version="1.1" xmlns="http://www.w3.org/2000/svg" xmlns:xlink="http://www.w3.org/1999/xlink">
    <title>BD179447-29FE-49EC-B58E-3CA9C1050F3C</title>
    <g id="UI" stroke="none" stroke-width="1" fill="none" fill-rule="evenodd">
        <g id="UI-_-Incicio-_-Mobile" transform="translate(-16.000000, -216.000000)" fill="#909199" fill-rule="nonzero">
            <g id="Search" transform="translate(8.000000, 200.000000)">
                <g id="Icon/Search" transform="translate(8.000000, 16.000000)">
                    <path d="M7.33333333,1.33333333 C10.6470418,1.33333333 13.3333333,4.01962483 13.3333333,7.33333333 C13.3333333,8.92541964 12.713239,10.3726752 11.7013929,11.4467574 C11.7161087,11.4538023 11.7291599,11.4632048 11.741933,11.4731364 L11.8047379,11.5285955 L14.4714045,14.1952621 C14.731754,14.4556117 14.731754,14.8777217 14.4714045,15.1380712 C14.2310819,15.3783938 13.8529278,15.3968802 13.5914004,15.1935303 L13.5285955,15.1380712 L10.8619288,12.4714045 C10.8047593,12.414235 10.7601435,12.3492656 10.7280814,12.2799218 C9.76333786,12.9447072 8.59371985,13.3333333 7.33333333,13.3333333 C4.01962483,13.3333333 1.33333333,10.6470418 1.33333333,7.33333333 C1.33333333,4.01962483 4.01962483,1.33333333 7.33333333,1.33333333 Z M7.33333333,2.66666667 C4.7560045,2.66666667 2.66666667,4.7560045 2.66666667,7.33333333 C2.66666667,9.91066217 4.7560045,12 7.33333333,12 C9.91066217,12 12,9.91066217 12,7.33333333 C12,4.7560045 9.91066217,2.66666667 7.33333333,2.66666667 Z" id="Icon"></path>
                </g>
            </g>
        </g>
    </g>
</svg>