<?xml version="1.0" encoding="UTF-8"?>
<svg width="20px" height="16px" viewBox="0 0 20 16" version="1.1" xmlns="http://www.w3.org/2000/svg" xmlns:xlink="http://www.w3.org/1999/xlink">
    <title>B648594F-CEBE-4679-853D-8A5D140A282B</title>
    <g id="UI" stroke="none" stroke-width="1" fill="none" fill-rule="evenodd">
        <g id="UI-_-Incicio-_-Mobile" transform="translate(-254.000000, -1084.000000)" fill="#909199" fill-rule="nonzero">
            <g id="Group-7" transform="translate(10.000000, 870.000000)">
                <g id="Group-4" transform="translate(241.000000, 198.000000)">
                    <g id="like" transform="translate(3.000000, 16.000000)">
                        <path d="M10.936703,0.344394202 C11.3565985,0.0256767212 11.9010264,-0.0792070206 12.4092664,0.0607401744 C13.3103712,0.308865292 13.8397159,1.24050027 13.5915908,2.14160514 L13.5915908,2.14160514 L12.9839594,4.85125982 L16.332146,4.85125982 C17.0409781,4.85125982 17.7332635,5.06547684 18.3182161,5.46581851 C19.9208983,6.56269469 20.3309352,8.75111921 19.234059,10.3538015 L19.234059,10.3538015 L16.0638329,14.9859243 C15.6910234,15.5306487 15.0734489,15.8563432 14.4133644,15.8563432 L14.4133644,15.8563432 L7,15.8563432 C5.8954305,15.8563432 5,14.9609127 5,13.8563432 L5,13.8563432 L5,5.84398015 C5,5.21856895 5.29255699,4.62916431 5.79068893,4.25100597 L5.79068893,4.25100597 Z M2.92,4.85634316 C3.51646753,4.85634316 4,5.33987563 4,5.93634316 L4,5.93634316 L4,14.7763432 C4,15.3728107 3.51646753,15.8563432 2.92,15.8563432 L2.92,15.8563432 L1.08,15.8563432 C0.48353247,15.8563432 3.20474693e-14,15.3728107 3.19744231e-14,14.7763432 L3.19744231e-14,14.7763432 L3.19744231e-14,5.93634316 C3.19013769e-14,5.33987563 0.48353247,4.85634316 1.08,4.85634316 L1.08,4.85634316 Z"></path>
                    </g>
                </g>
            </g>
        </g>
    </g>
</svg>