<?xml version="1.0" encoding="UTF-8"?>
<svg width="150px" height="34px" viewBox="0 0 150 34" version="1.1" xmlns="http://www.w3.org/2000/svg" xmlns:xlink="http://www.w3.org/1999/xlink">
    <title>03BC8237-E42A-4801-B223-DF3E35FFC1CE</title>
    <defs>
        <path d="M140.822666,26.9229415 C141.481799,26.9229415 142.070164,26.9531548 142.588639,27.0138746 C143.106821,27.0748878 143.58728,27.1661142 144.031186,27.2872606 L144.031186,29.4731747 C143.26444,29.3247485 142.652096,29.2276554 142.194738,29.1801355 C141.737381,29.1326156 141.266864,29.109149 140.782603,29.109149 C139.974917,29.109149 139.403221,29.2338154 139.066636,29.4834414 C138.730051,29.7330674 138.56249,30.1616262 138.56249,30.7688246 C138.56249,31.120237 138.632965,31.3862896 138.773916,31.5687425 C138.915743,31.7511953 139.154364,31.8820216 139.490657,31.9626881 L142.215208,32.610953 C142.847145,32.7593793 143.317954,32.9116189 143.62822,33.0662052 C143.937317,33.2216714 144.192899,33.4140976 144.394674,33.6431903 C144.596157,33.8995629 144.748219,34.2172421 144.848815,34.5947611 C144.949995,34.9725734 145,35.4383855 145,35.991904 C145,37.4221935 144.623645,38.4479775 143.870058,39.0683758 C143.116471,39.6890675 141.946174,40 140.357998,40 C139.53803,40 138.747305,39.9454401 137.987284,39.8374938 C137.226679,39.7298407 136.631881,39.5949077 136.201427,39.4332815 L136.201427,37.1449943 C136.779557,37.3209938 137.435765,37.4594468 138.169175,37.5606465 C138.902291,37.6612596 139.632192,37.7122994 140.357998,37.7122994 C141.152525,37.7122994 141.707261,37.6005397 142.023668,37.3781937 C142.33949,37.1552609 142.497401,36.7205421 142.497401,36.0725705 C142.497401,35.6674782 142.433652,35.3738523 142.306153,35.1916928 C142.177777,35.0098266 141.912253,34.8713737 141.508702,34.7769206 L138.704318,34.1090024 C137.774982,33.8931096 137.122575,33.5390572 136.74622,33.0468452 C136.369573,32.5534599 136.181249,31.8488751 136.181249,30.9310375 C136.181249,29.5541345 136.557604,28.5418439 137.311191,27.8944589 C138.064485,27.2464873 139.235367,26.9229415 140.822666,26.9229415 Z M82.3805515,26.9229122 C83.1744935,26.9229122 83.8839238,26.9399255 84.5100121,26.9730721 C85.1355156,27.007392 85.6159748,27.0584318 85.9525594,27.1253117 L85.9525594,27.1253117 L85.9525594,29.2507993 C85.4677138,29.2100261 84.9097612,29.1759995 84.2778243,29.1490129 C83.6450101,29.1223197 83.0127808,29.108533 82.3805515,29.108533 C80.9944428,29.108533 80.0499004,29.4262122 79.5451697,30.0603972 C79.0410238,30.6948755 78.7886584,31.8280191 78.7886584,33.4615881 C78.7886584,34.243906 78.8316454,34.891291 78.9196662,35.4046229 C79.0071022,35.9176616 79.1381099,36.3353671 79.3135667,36.6597929 C79.5422454,37.0642985 79.8683026,37.3546977 80.2923232,37.5304039 C80.7160514,37.7052301 81.3444791,37.7929366 82.1784837,37.7929366 C82.461554,37.7929366 82.790828,37.7729899 83.1677676,37.7322167 C83.5444149,37.6917368 83.9476731,37.6377636 84.378712,37.5702971 L84.378712,37.5702971 L84.378712,32.8338564 L86.6385955,32.8338564 L86.6385955,39.2302661 C86.2619482,39.4062656 85.5893639,39.5778651 84.6205499,39.746238 C83.6523208,39.9151976 82.7709429,39.9999707 81.9772933,39.9999707 C79.8378901,39.9999707 78.3546953,39.501012 77.5271241,38.5013347 C76.6995529,37.5028307 76.2857673,35.8229151 76.2857673,33.4615881 C76.2857673,31.2076208 76.7735371,29.5541052 77.7493694,28.5010413 C78.7246167,27.4488575 80.2683441,26.9229122 82.3805515,26.9229122 Z M19.4122949,20 L22.2973895,25.0268399 C23.2457334,26.6794755 23.0612114,28.7512833 21.8344759,30.2085594 L21.8344759,30.2085594 L14.5471703,38.8689097 C13.8889149,39.6298143 13.1318189,39.8284005 12.2773443,39.8284005 L12.2773443,39.8284005 L8,39.8284005 L19.4122949,20 Z M25.583549,30.7223901 L30.8244435,39.8286058 L27.6033492,39.8286058 C24.3720198,39.8286058 22.3548516,36.3182952 23.9728556,33.5137426 L23.9728556,33.5137426 L25.583549,30.7223901 Z M47.7111951,27.124901 L52.4736774,39.8176938 L49.9313085,39.8176938 L49.0227347,37.2263941 L43.7961692,37.2263941 L42.9077729,39.8176938 L40.3651115,39.8176938 L45.2083039,27.124901 L47.7111951,27.124901 Z M56.1866941,27.1249597 L56.1866941,37.5300519 L61.67586,37.5300519 L61.67586,39.8177525 L53.7653904,39.8177525 L53.7653904,27.1249597 L56.1866941,27.1249597 Z M70.4544022,27.1250477 L70.4544022,29.3112552 L66.6197939,29.3112552 L66.6197939,39.8178405 L64.1984901,39.8178405 L64.1984901,29.3112552 L60.3843518,29.3112552 L60.3843518,27.1250477 L70.4544022,27.1250477 Z M74.3489582,27.1245197 L74.3489582,39.8173125 L71.9270695,39.8173125 L71.9270695,27.1245197 L74.3489582,27.1245197 Z M93.0763978,27.125077 C94.9461824,27.125077 96.2811162,27.4427562 97.0820764,28.0769411 C97.8824518,28.7111261 98.2827858,29.7700566 98.2827858,31.254906 C98.2827858,32.3208765 98.0505979,33.1809275 97.5862223,33.8356458 C97.1224315,34.490364 96.4194346,34.9459095 95.4778165,35.2022821 L98.6658664,39.8175765 L95.7603019,39.8175765 L92.9146851,35.4856414 L91.0381747,35.4856414 L91.0381747,39.8175765 L88.616286,39.8175765 L88.616286,27.125077 L93.0763978,27.125077 Z M106.476063,27.124901 L111.238837,39.8176938 L108.695591,39.8176938 L107.78731,37.2263941 L102.561037,37.2263941 L101.67264,39.8176938 L99.1299789,39.8176938 L103.973171,27.124901 L106.476063,27.124901 Z M116.989931,27.1253117 C118.859715,27.1253117 120.194649,27.4556041 120.99561,28.117069 C121.795985,28.7782406 122.196319,29.8782377 122.196319,31.4167669 C122.196319,32.9687894 121.7761,34.1157197 120.935077,34.857851 C120.094054,35.6005691 118.79889,35.9710481 117.050463,35.9710481 L114.951123,35.9710481 L114.951123,39.8175178 L112.529819,39.8175178 L112.529819,27.1253117 L116.989931,27.1253117 Z M126.293294,27.124901 L126.293294,32.266434 L131.822522,32.266434 L131.822522,27.124901 L134.244411,27.124901 L134.244411,39.8176938 L131.822522,39.8176938 L131.822522,34.4731747 L126.293294,34.4731747 L126.293294,39.8176938 L123.871405,39.8176938 L123.871405,27.124901 L126.293294,27.124901 Z M46.3990707,29.4533748 C46.2511022,29.9658268 46.0864652,30.5055587 45.904575,31.0725705 C45.7232696,31.6389956 45.5519068,32.1658209 45.3904866,32.6515796 L44.5020903,35.2220527 L48.3168135,35.2220527 L47.4284173,32.6515796 C47.2801563,32.2197941 47.1120102,31.7173154 46.923979,31.143557 C46.7353629,30.5700918 46.5607834,30.0066 46.3990707,29.4533748 Z M105.164231,29.4533748 C105.015677,29.9658268 104.85104,30.5055587 104.669735,31.0725705 C104.487845,31.6389956 104.316774,32.1658209 104.155646,32.6515796 L103.26725,35.2220527 L107.081096,35.2220527 L106.193285,32.6515796 C106.045316,32.2197941 105.87717,31.7173154 105.688554,31.143557 C105.499938,30.5700918 105.325358,30.0066 105.164231,29.4533748 Z M116.989931,29.3115192 L114.951123,29.3115192 L114.951123,33.8455604 L116.989931,33.8455604 C117.998515,33.8455604 118.708238,33.6607609 119.118514,33.2888152 C119.529083,32.9180429 119.734368,32.2941245 119.734368,31.4167669 C119.734368,30.6473556 119.529083,30.1041037 119.118514,29.7867179 C118.708238,29.4702121 117.998515,29.3115192 116.989931,29.3115192 Z M93.0763978,29.3118712 L91.0381747,29.3118712 L91.0381747,33.4610601 L93.0763978,33.4610601 C94.0849819,33.4610601 94.7947047,33.2929806 95.2049811,32.9553548 C95.61555,32.617729 95.8208345,32.0513039 95.8208345,31.254906 C95.8208345,30.5532545 95.61555,30.0537092 95.2049811,29.7568566 C94.7947047,29.4597108 94.0849819,29.3118712 93.0763978,29.3118712 Z" id="path-1"></path>
        <filter x="-7.6%" y="-55.1%" width="114.2%" height="200.1%" filterUnits="objectBoundingBox" id="filter-2">
            <feMorphology radius="1" operator="dilate" in="SourceAlpha" result="shadowSpreadOuter1"></feMorphology>
            <feOffset dx="0" dy="0" in="shadowSpreadOuter1" result="shadowOffsetOuter1"></feOffset>
            <feGaussianBlur stdDeviation="2" in="shadowOffsetOuter1" result="shadowBlurOuter1"></feGaussianBlur>
            <feColorMatrix values="0 0 0 0 0   0 0 0 0 0   0 0 0 0 0  0 0 0 0.2 0" type="matrix" in="shadowBlurOuter1"></feColorMatrix>
        </filter>
    </defs>
    <g id="UI" stroke="none" stroke-width="1" fill="none" fill-rule="evenodd">
        <g id="Mobile_Altigraphs-logo" transform="translate(-1.000000, -12.000000)">
            <use fill="black" fill-opacity="1" filter="url(#filter-2)" xlink:href="#path-1"></use>
            <use fill="#FFFFFF" fill-rule="evenodd" xlink:href="#path-1"></use>
        </g>
    </g>
</svg>