<?xml version="1.0" encoding="UTF-8"?>
<svg width="217px" height="119px" viewBox="0 0 217 119" version="1.1" xmlns="http://www.w3.org/2000/svg" xmlns:xlink="http://www.w3.org/1999/xlink">
    <title>44984B5F-7D9A-4EC8-A644-9238EB246764</title>
    <g id="UI" stroke="none" stroke-width="1" fill="none" fill-rule="evenodd">
        <g id="UI-_-Incicio-_-Mobile" transform="translate(-52.000000, -4252.000000)" fill="#FFFFFF">
            <g id="Logo-Altigraphs-Footer" transform="translate(51.999766, 4252.000176)">
                <path d="M75.2041656,109.006981 C76.8381408,109.006981 77.9583132,109.370283 78.5623392,110.094542 C79.1675369,110.817629 79.4710146,112.121413 79.4710146,114.004135 C79.4710146,115.762046 79.137072,117.034187 78.4691868,117.819973 C77.803645,118.606345 76.7139376,119.000117 75.2041656,119.000117 C73.5602306,119.000117 72.4353713,118.637402 71.8307595,117.912557 C71.2255618,117.189469 70.9232558,115.885686 70.9232558,114.004135 C70.9232558,112.245639 71.2571984,110.972325 71.9244978,110.187125 C72.5900395,109.400753 73.6850197,109.006981 75.2041656,109.006981 Z M109.004078,109.006981 C110.637467,109.006981 111.757053,109.370283 112.362251,110.094542 C112.967449,110.817629 113.269755,112.121413 113.269755,114.004135 C113.269755,115.762046 112.935812,117.034187 112.269099,117.819973 C111.602385,118.606345 110.51385,119.000117 109.004078,119.000117 C107.360728,119.000117 106.234697,118.637402 105.630671,117.912557 C105.025474,117.189469 104.723168,115.885686 104.723168,114.004135 C104.723168,112.245639 105.055939,110.972325 105.723824,110.187125 C106.389951,109.400753 107.484932,109.006981 109.004078,109.006981 Z M116.186011,109.162674 L116.186011,115.073941 C116.186011,116.170877 116.397508,116.943186 116.82226,117.393797 C117.246425,117.843236 117.958836,118.068249 118.963593,118.068249 C119.996472,118.068249 120.72763,117.843236 121.157069,117.393797 C121.585921,116.943186 121.801519,116.170877 121.801519,115.073941 L121.801519,109.162674 L122.793973,109.162674 L122.793973,115.073941 C122.793973,116.428704 122.48288,117.42251 121.862449,118.053014 C121.242605,118.684103 120.275343,118.999355 118.963593,118.999355 C117.6495,118.999355 116.692198,118.689377 116.092859,118.068249 C115.49352,117.447706 115.192971,116.449799 115.192971,115.073941 L115.192971,109.162674 L116.186011,109.162674 Z M53.163427,109.16326 L53.163427,113.507057 L54.6210571,113.507057 L58.3436382,109.16326 L59.5844986,109.16326 L55.4893078,113.926025 L59.7549851,118.890951 L58.4373765,118.890951 L54.6210571,114.391286 L53.163427,114.391286 L53.163427,118.890951 L52.1692154,118.890951 L52.1692154,109.16326 L53.163427,109.16326 Z M153.413756,109.163142 L157.306238,118.890834 L156.235864,118.890834 L155.243996,116.331316 L150.527203,116.331316 L149.518931,118.890834 L148.464375,118.890834 L152.373847,109.163142 L153.413756,109.163142 Z M157.508127,109.163318 L160.672379,114.252469 L163.790348,109.163318 L164.829671,109.163318 L161.153959,115.151934 L161.153959,118.890424 L160.145687,118.890424 L160.145687,115.151934 L156.376237,109.163318 L157.508127,109.163318 Z M136.723012,109.163084 L138.506969,115.709543 C138.547979,115.854864 138.606565,116.113862 138.685071,116.485367 C138.762405,116.857459 138.857901,117.349088 138.972145,117.959083 C138.99265,117.877047 139.067055,117.551247 139.197117,116.981684 C139.326593,116.413879 139.426189,115.990223 139.500008,115.709543 L141.500735,109.163084 L142.55529,109.163084 L144.556602,115.709543 C144.618118,115.926938 144.684321,116.185937 144.75814,116.485367 C144.830201,116.78597 144.938,117.266466 145.08388,117.928612 C145.114345,117.793839 145.184063,117.458078 145.293619,116.920157 C145.370619,116.536347 145.43895,116.2207 145.497758,115.973431 L145.563703,115.709543 L147.333013,109.163084 L148.387568,109.163084 L145.642209,118.890189 L144.524966,118.890189 L142.664261,113.010564 C142.549432,112.627926 142.441633,112.230052 142.337935,111.815771 C142.255914,111.485284 142.169018,111.11842 142.079648,110.714278 L142.012,110.404674 L141.944351,110.714278 C141.854831,111.11842 141.76906,111.485284 141.687039,111.815771 C141.582756,112.230052 141.474371,112.627926 141.360713,113.010564 L139.514655,118.890189 L138.382765,118.890189 L135.63682,109.163084 L136.723012,109.163084 Z M62.144901,109.163318 L67.9613608,117.385066 L67.9613608,109.163318 L68.9069456,109.163318 L68.9069456,118.890424 L67.85239,118.890424 L62.0353444,110.745438 L62.0353444,118.890424 L61.0897595,118.890424 L61.0897595,109.163318 L62.144901,109.163318 Z M81.5642488,109.163084 L83.3482053,115.709543 C83.3898016,115.854864 83.4483881,116.113862 83.5268939,116.485367 C83.6036421,116.857459 83.6991379,117.349088 83.8133815,117.959083 C83.8344726,117.877047 83.9082915,117.551247 84.0389392,116.981684 C84.1678293,116.413879 84.2674262,115.990223 84.3412451,115.709543 L86.3419714,109.163084 L87.3965269,109.163084 L89.3978391,115.709543 C89.4593548,115.926938 89.5261433,116.185937 89.5993763,116.485367 C89.6720235,116.78597 89.7792366,117.266466 89.9251168,117.928612 C89.9555818,117.793839 90.0252996,117.458078 90.1348562,116.920157 C90.2426552,116.382823 90.3334642,115.979089 90.4061113,115.709543 L92.1742495,109.163084 L93.2299768,109.163084 L90.4834454,118.890189 L89.3662024,118.890189 L87.5054977,113.010564 C87.3906683,112.627926 87.2828693,112.230052 87.1791713,111.815771 C87.0971503,111.485284 87.0106299,111.11842 86.9211098,110.714278 L86.853,110.404674 L86.7858127,110.714278 C86.6964426,111.11842 86.6102972,111.485284 86.5282762,111.815771 C86.4245782,112.230052 86.3156075,112.627926 86.2019498,113.010564 L84.3558917,118.890189 L83.2240021,118.890189 L80.4780566,109.163084 L81.5642488,109.163084 Z M96.8588783,109.163318 L100.023131,114.252469 L103.1411,109.163318 L104.180423,109.163318 L100.503539,115.151934 L100.503539,118.890424 L99.4952672,118.890424 L99.4952672,115.151934 L95.7258169,109.163318 L96.8588783,109.163318 Z M128.394132,109.162498 C129.727559,109.162498 130.688962,109.395128 131.278342,109.860974 C131.868307,110.326235 132.162411,111.082136 132.162411,112.125749 C132.162411,112.984782 131.966146,113.667437 131.573617,114.174301 C131.179916,114.680579 130.58585,115.011652 129.789075,115.165763 L132.396171,118.890189 L131.201008,118.890189 L128.734519,115.29116 L126.15906,115.29116 L126.15906,118.890189 L125.167192,118.890189 L125.167192,109.162498 L128.394132,109.162498 Z M109.004078,109.922853 C107.772591,109.922853 106.920159,110.228143 106.445023,110.83931 C105.969301,111.449305 105.73144,112.504052 105.73144,114.004135 C105.73144,114.759451 105.772451,115.378821 105.855643,115.865177 C105.93825,116.350946 106.06714,116.744718 106.243485,117.044149 C106.470801,117.406864 106.791854,117.667621 107.203717,117.827591 C107.617923,117.988147 108.218434,118.068425 109.004078,118.068425 C110.223261,118.068425 111.072764,117.763134 111.5479,117.152553 C112.023622,116.543144 112.261483,115.493672 112.261483,114.004135 C112.261483,113.24882 112.2193,112.628277 112.138451,112.141922 C112.054672,111.656153 111.925782,111.263553 111.749437,110.962364 C111.532082,110.590273 111.219816,110.324242 110.811469,110.163687 C110.402535,110.002545 109.800267,109.922853 109.004078,109.922853 Z M75.2041656,109.922853 C73.9738507,109.922853 73.1196607,110.228143 72.6451107,110.83931 C72.169389,111.449305 71.932114,112.504052 71.932114,114.004135 C71.932114,114.759451 71.9737104,115.378821 72.0557313,115.865177 C72.1383382,116.350946 72.2672283,116.744718 72.4435734,117.044149 C72.6708888,117.406864 72.9919423,117.667621 73.4049766,117.827591 C73.8180109,117.988147 74.4191075,118.068425 75.2041656,118.068425 C76.4239348,118.068425 77.2728521,117.763134 77.7485738,117.152553 C78.2237097,116.543144 78.4615705,115.493672 78.4615705,114.004135 C78.4615705,113.24882 78.4205601,112.628277 78.3379532,112.141922 C78.2547605,111.656153 78.1264562,111.263553 77.9501111,110.962364 C77.7321696,110.590273 77.419904,110.324242 77.0115566,110.163687 C76.6032093,110.002545 76.0009409,109.922853 75.2041656,109.922853 Z M152.870074,110.047372 C152.788053,110.305784 152.693729,110.58998 152.591203,110.900544 C152.487505,111.210522 152.317018,111.691604 152.077986,112.343789 L150.868762,115.445915 L154.901851,115.445915 L153.692627,112.343789 C153.537959,111.940055 153.390321,111.545111 153.250886,111.156027 C153.110864,110.768115 152.983732,110.39954 152.870074,110.047372 Z M128.394132,110.078369 L126.15906,110.078369 L126.15906,114.407517 L128.394132,114.407517 C129.355535,114.407517 130.055643,114.226452 130.495041,113.864323 C130.934439,113.501607 131.154724,112.922669 131.154724,112.125749 C131.154724,111.391529 130.942641,110.867671 130.519648,110.551247 C130.09431,110.235995 129.385414,110.078369 128.394132,110.078369 Z M208.336767,67.9999079 C209.702417,67.9999079 210.923358,68.0626067 211.998419,68.1874184 C213.072308,68.312816 214.070035,68.5026703 214.991013,68.7534656 L214.991013,73.2736397 C213.400978,72.9665913 212.130238,72.7656035 211.181724,72.6665746 C210.23321,72.5698895 209.25716,72.520082 208.252403,72.520082 C206.578589,72.520082 205.391628,72.7779089 204.69445,73.2941487 C203.996685,73.8115604 203.649268,74.6969613 203.649268,75.9526955 C203.649268,76.6787125 203.795148,77.2295245 204.088666,77.6068893 C204.381598,77.9836682 204.877239,78.2549724 205.575004,78.4225599 L211.223906,79.7615018 C212.534484,80.0685501 213.511706,80.3826302 214.153813,80.7043278 C214.796506,81.0254395 215.325542,81.4233132 215.743849,81.8967772 C216.162741,82.4264942 216.476179,83.0833668 216.685918,83.8638791 C216.895072,84.6461493 216.999941,85.6077264 216.999941,86.7527122 C216.999941,89.7095178 216.218984,91.8324879 214.656485,93.1157626 C213.092813,94.3990373 210.665578,95.0418466 207.373607,95.0418466 C205.671671,95.0418466 204.031837,94.9287544 202.455863,94.7054997 C200.880474,94.4828311 199.644886,94.2033233 198.752029,93.8693203 L198.752029,89.1376109 C199.951293,89.5020844 201.31167,89.7868659 202.832573,89.9966432 C204.354063,90.2052486 205.866764,90.3107233 207.373607,90.3107233 C209.019299,90.3107233 210.170522,90.079851 210.827276,89.6210363 C211.482272,89.1598778 211.810356,88.2592416 211.810356,86.9197137 C211.810356,86.0841202 211.676779,85.4752972 211.411969,85.0985183 C211.146572,84.7217395 210.596446,84.436958 209.759246,84.240658 L203.942786,82.8595262 C202.01705,82.4136029 200.663118,81.6811401 199.882161,80.6633099 C199.100618,79.6431358 198.711019,78.1852419 198.711019,76.2878704 C198.711019,73.4400552 199.49139,71.3475557 201.05389,70.0091997 C202.616389,68.6696719 205.044211,67.9999079 208.336767,67.9999079 Z M87.1349972,67.9996735 C88.7806897,67.9996735 90.2529664,68.0354177 91.5500698,68.1039762 C92.7303199,68.1679002 93.6612145,68.2603964 94.3453947,68.3810243 L94.54325,68.4180563 L94.54325,72.8140047 C93.5384929,72.7302109 92.3802394,72.6598945 91.0684894,72.6048133 C89.7567395,72.5485602 88.4461612,72.5204336 87.1349972,72.5204336 C84.2601615,72.5204336 82.3016175,73.1767202 81.255264,74.4887075 C80.2083247,75.7995229 79.6857338,78.1428177 79.6857338,81.5203499 C79.6857338,83.1387996 79.775371,84.4783275 79.9575748,85.5389335 C80.1386068,86.6001256 80.409862,87.4638456 80.7742695,88.1347815 C81.2482336,88.970961 81.9243209,89.5709945 82.8037031,89.934296 C83.6819135,90.2964256 84.9860473,90.4780763 86.7166901,90.4780763 C87.3025543,90.4780763 87.985672,90.4370584 88.7678007,90.3526787 C89.3911602,90.285175 90.05239,90.2007952 90.7490903,90.0977395 L91.2782288,90.0169178 L91.2782288,80.2230119 L95.9657283,80.2230119 L95.9657283,93.4495312 C95.1841854,93.8128327 93.7892428,94.1696886 91.7803144,94.5171689 C89.7713861,94.8652352 87.9446615,95.0410263 86.2977972,95.0410263 C81.8622193,95.0410263 78.7858464,94.0085468 77.0698501,91.9430018 C75.353268,89.8786288 74.494977,86.4044115 74.494977,81.5203499 C74.494977,76.8601289 75.5073503,73.4409928 77.5297535,71.2641135 C79.5521568,69.0872342 82.7539046,67.9996735 87.1349972,67.9996735 Z M15.233641,68.4170601 L25.1107256,94.6644232 L19.8373619,94.6644232 L17.9555661,89.3068977 L7.11473489,89.3068977 L5.2733637,94.6644232 L3.35731443e-13,94.6644232 L10.0452276,68.4170601 L15.233641,68.4170601 Z M178.204072,68.4183492 L178.204072,79.0501925 L189.671192,79.0501925 L189.671192,68.4183492 L194.692635,68.4183492 L194.692635,94.6645404 L189.671192,94.6645404 L189.671192,83.6131425 L178.204072,83.6131425 L178.204072,94.6645404 L173.180873,94.6645404 L173.180873,68.4183492 L178.204072,68.4183492 Z M32.8114419,68.4175875 L32.8114419,89.9344132 L44.1953692,89.9344132 L44.1953692,94.6643646 L27.7888281,94.6643646 L27.7888281,68.4175875 L32.8114419,68.4175875 Z M62.4009236,68.4177633 L62.4009236,72.9396953 L54.4495746,72.9396953 L54.4495746,94.6639545 L49.4269608,94.6639545 L49.4269608,72.9396953 L41.5172082,72.9396953 L41.5172082,68.4177633 L62.4009236,68.4177633 Z M109.316636,68.4184664 C113.1933,68.4184664 115.963266,69.0741671 117.623605,70.3861544 C119.282772,71.6969697 120.114113,73.8879123 120.114113,76.9578101 C120.114113,79.16223 119.632533,80.9412356 118.669372,82.2942408 C117.707969,83.6484179 116.249167,84.590072 114.295896,85.120375 L120.907959,94.6646576 L114.882346,94.6646576 L108.980936,85.7069312 L105.088454,85.7069312 L105.088454,94.6646576 L100.067012,94.6646576 L100.067012,68.4184664 L109.316636,68.4184664 Z M137.105171,68.4170601 L146.981084,94.6644232 L141.708306,94.6644232 L139.825925,89.3068977 L128.985093,89.3068977 L127.143722,94.6644232 L121.87153,94.6644232 L131.916172,68.4170601 L137.105171,68.4170601 Z M158.909924,68.4180563 C162.787173,68.4180563 165.557725,69.1018835 167.216892,70.468366 C168.876646,71.8366064 169.707401,74.1113427 169.707401,77.2925749 C169.707401,80.5019337 168.835635,82.8727691 167.091517,84.408011 C165.347986,85.943253 162.662384,86.709702 159.035299,86.709702 L154.682328,86.709702 L154.682328,94.6642474 L149.6603,94.6642474 L149.6603,68.4180563 L158.909924,68.4180563 Z M70.4779405,68.4182906 L70.4779405,94.6644818 L65.4553266,94.6644818 L65.4553266,68.4182906 L70.4779405,68.4182906 Z M12.5140594,73.2319772 C12.2064807,74.2925833 11.8649219,75.4088565 11.4882112,76.5802109 C11.1109146,77.7521513 10.7558809,78.8414699 10.4207666,79.8452369 L8.5793954,85.1611585 L16.4897339,85.1611585 L14.6483627,79.8452369 C14.340784,78.9528043 13.9921948,77.9132932 13.6014234,76.7278754 C13.2106519,75.5406998 12.8485879,74.376963 12.5140594,73.2319772 Z M134.384418,73.2319772 C134.078011,74.2925833 133.736452,75.4088565 133.359156,76.5802109 C132.982445,77.7521513 132.626825,78.8414699 132.292297,79.8452369 L130.450926,85.1611585 L138.361264,85.1611585 L136.519893,79.8452369 C136.211142,78.9528043 135.863725,77.9132932 135.471782,76.7278754 C135.081596,75.5406998 134.720118,74.376963 134.384418,73.2319772 Z M158.909924,72.9394023 L154.682328,72.9394023 L154.682328,82.3149255 L158.909924,82.3149255 C161.002045,82.3149255 162.473736,81.932287 163.324411,81.1634941 C164.175085,80.397045 164.60218,79.1073246 164.60218,77.2925749 C164.60218,75.7016658 164.175085,74.578361 163.324411,73.9232463 C162.473736,73.2675456 161.002045,72.9394023 158.909924,72.9394023 Z M109.316636,72.9392265 L105.088454,72.9392265 L105.088454,81.5207601 L109.316636,81.5207601 C111.407585,81.5207601 112.879276,81.1721078 113.731123,80.4736313 C114.581798,79.7757408 115.007721,78.6049724 115.007721,76.9578101 C115.007721,75.5075339 114.581798,74.4732965 113.731123,73.8603717 C112.879276,73.2462749 111.407585,72.9392265 109.316636,72.9392265 Z" id="Combined-Shape"></path>
                <path d="M108.499707,2.84217094e-13 L114.483724,10.3951113 C116.45047,13.8113176 116.066729,18.0953457 113.524078,21.1089905 L113.524078,21.1089905 L98.4099538,39.0179977 C97.0460619,40.5913276 95.4759458,41.0020928 93.7037066,41.0020928 L93.7037066,41.0020928 L84.831965,41.0020928 L108.499707,2.84217094e-13 Z M121.298614,22.1718818 L132.168738,41.0020342 L125.486957,41.0020342 C118.7876,41.0020342 114.602186,33.7430353 117.959188,27.9436883 L117.959188,27.9436883 L121.298614,22.1718818 Z" id="Combined-Shape"></path>
            </g>
        </g>
    </g>
</svg>