<?xml version="1.0" encoding="UTF-8"?>
<svg width="41px" height="33px" viewBox="0 0 41 33" version="1.1" xmlns="http://www.w3.org/2000/svg" xmlns:xlink="http://www.w3.org/1999/xlink">
    <title>9153675B-730C-4DF2-A78F-7910428D41C4</title>
    <g id="UI" stroke="none" stroke-width="1" fill="none" fill-rule="evenodd">
        <g id="UI-_-Incicio-_-Mobile" transform="translate(-139.000000, -1486.000000)" fill="#E7004C" fill-rule="nonzero">
            <path d="M161.555989,1486.74346 C162.426212,1486.0779 163.557266,1485.85675 164.614073,1486.14557 C166.484182,1486.65667 167.585884,1488.58701 167.074793,1490.45712 L167.074793,1490.45712 L165.819669,1496.09641 L172.664839,1496.09641 C174.134034,1496.09641 175.569346,1496.53779 176.784672,1497.36333 C180.134299,1499.63865 181.005197,1504.19858 178.729876,1507.5482 L178.729876,1507.5482 L172.18963,1517.17647 C171.41482,1518.31711 170.125406,1519 168.746495,1519 L168.746495,1519 L153.490373,1519 C151.191558,1519 149.328001,1517.13644 149.328001,1514.83763 L149.328001,1514.83763 L149.328001,1498.15305 C149.328001,1496.85676 149.931941,1495.63446 150.961576,1494.84692 L150.961576,1494.84692 Z M145.01472,1496.10699 C146.25608,1496.10699 147.262401,1497.11331 147.262401,1498.35467 L147.262401,1498.35467 L147.262401,1516.75232 C147.262401,1517.99368 146.25608,1519 145.01472,1519 L145.01472,1519 L141.247681,1519 C140.006321,1519 139,1517.99368 139,1516.75232 L139,1516.75232 L139,1498.35467 C139,1497.11331 140.006321,1496.10699 141.247681,1496.10699 L141.247681,1496.10699 Z" id="mejor-valorados"></path>
        </g>
    </g>
</svg>