<?xml version="1.0" encoding="UTF-8"?>
<svg width="130px" height="130px" viewBox="0 0 130 130" version="1.1" xmlns="http://www.w3.org/2000/svg" xmlns:xlink="http://www.w3.org/1999/xlink">
    <title>50110180-7CED-49B4-A29A-12E4FDC3497C</title>
    <defs>
        <filter x="-20.0%" y="-20.0%" width="140.0%" height="140.0%" filterUnits="objectBoundingBox" id="filter-1">
            <feOffset dx="0" dy="0" in="SourceAlpha" result="shadowOffsetOuter1"></feOffset>
            <feGaussianBlur stdDeviation="5" in="shadowOffsetOuter1" result="shadowBlurOuter1"></feGaussianBlur>
            <feColorMatrix values="0 0 0 0 0   0 0 0 0 0   0 0 0 0 0  0 0 0 0.3 0" type="matrix" in="shadowBlurOuter1" result="shadowMatrixOuter1"></feColorMatrix>
            <feMerge>
                <feMergeNode in="shadowMatrixOuter1"></feMergeNode>
                <feMergeNode in="SourceGraphic"></feMergeNode>
            </feMerge>
        </filter>
        <circle id="path-2" cx="50" cy="50" r="50"></circle>
    </defs>
    <g id="UI" stroke="none" stroke-width="1" fill="none" fill-rule="evenodd">
        <g id="UI-_-Mi-perfil-_-Puertos-_-Desktop-HD" transform="translate(-235.000000, -94.000000)">
            <g id="profile-no-photo" filter="url(#filter-1)" transform="translate(250.000000, 109.000000)">
                <mask id="mask-3" fill="white">
                    <use xlink:href="#path-2"></use>
                </mask>
                <use id="Mask" fill="#585A65" xlink:href="#path-2"></use>
                <path d="M53.1773817,15.0002985 L53.3304415,15.0041935 C63.1450421,15.8167981 71.9715957,20.1954744 77.5512499,27.015202 C77.9882398,27.5526217 78.0380438,28.3166643 77.6701369,28.9058836 L77.6701369,28.9058836 L74.6995694,33.6698186 L78.9023842,31.7597122 C79.7024613,31.3954969 80.6407043,31.7467623 81.013431,32.5431796 C82.5541418,35.824354 83.3333333,39.2463582 83.3333333,42.7104496 C83.3333333,45.4299232 82.848146,48.1461594 81.8970503,50.7814588 C81.7934502,51.0710651 80.598264,51.8751602 79.3985651,52.669016 L78.9505897,52.9652072 C78.0837181,53.5386325 77.2872872,54.071398 76.9881148,54.3574797 L77.1087549,54.4048233 C79.5745435,55.4810695 81.2734216,58.0502212 81.4004294,61.001086 L81.4004294,61.001086 L81.4080739,61.3569509 C81.3900223,65.0361383 78.9171571,68.2042588 75.5169879,68.7346946 L75.5169879,68.7346946 L75.3153637,68.7602183 L75.2153702,68.9820545 C70.8236176,78.4323641 61.3616922,84.7664721 50.6418036,84.9936792 L50.6418036,84.9936792 L50.0449843,85 C39.0669938,85 29.3210343,78.5917694 24.8580831,68.9501472 L24.8580831,68.9501472 L24.7783556,68.7735183 L24.4686838,68.73446 C21.1736182,68.2196053 18.7508292,65.2273597 18.597949,61.6953872 L18.597949,61.6953872 L18.5902791,61.3404626 C18.5902791,58.2563859 20.3263567,55.5223474 22.8916247,54.403647 L22.8916247,54.403647 L22.9314949,54.3872529 C22.2477882,53.7116914 18.3107467,51.3514115 18.1061628,50.7830775 C17.151854,48.1477781 16.6666667,45.4347794 16.6666667,42.7104496 C16.6666667,39.2495957 17.4474648,35.824354 18.9881756,32.5431796 C19.3625088,31.748381 20.3007519,31.3987344 21.0976158,31.7597122 L21.0976158,31.7597122 L25.3020371,33.6698186 L22.3330763,28.9058836 C21.9619562,28.3166643 22.0133668,27.5526217 22.4519632,27.015202 C28.0284043,20.1954744 36.8565645,15.8167981 46.6727717,15.0041935 C47.4166185,14.958869 48.1138744,15.4121146 48.3387957,16.1356888 L48.3387957,16.1356888 L50.0016066,21.4807494 L51.666024,16.1356888 C51.8893387,15.4121146 52.5576762,14.9507753 53.3304415,15.0041935 Z M28.3320481,51.8482047 L26.3896922,51.8482047 L26.346493,52.5290324 L26.336675,52.876101 C26.336675,54.0561583 26.5306696,55.6726668 26.9186588,57.7256266 L26.9476667,57.879 L26.9063839,57.8195808 C26.6158405,57.4348936 26.1904119,57.2269566 25.6300983,57.1957698 L25.4739413,57.1916466 L25.4739413,57.1916466 L25.2882156,57.197346 C23.3817278,57.3115452 21.8800206,59.1262364 21.8800206,61.3404626 C21.8800206,63.6325903 23.483388,65.4876598 25.4819742,65.4876598 L25.4819742,65.4876598 L25.7293504,65.4780598 C26.1375037,65.4462472 26.5246449,65.3363082 26.8861256,65.1622942 L26.8861256,65.1622942 L27.0128459,65.5254574 C30.3804167,74.933731 39.4123901,81.6750027 50.0449843,81.6750027 L50.0449843,81.6750027 L50.4527641,81.6716934 C61.0340158,81.4998324 69.9582452,74.6514581 73.1925969,65.1930502 L73.1925969,65.1930502 L73.3991615,65.2806342 C73.7476258,65.414592 74.1169162,65.4876598 74.5051732,65.4876598 L74.5051732,65.4876598 L74.6913463,65.4822683 C76.6024151,65.3712912 78.1074782,63.5609613 78.1183729,61.3404626 C78.1183729,59.0499536 76.5182186,57.1965028 74.5244522,57.1916466 L74.5244522,57.1916466 L74.3514464,57.196626 C73.7885082,57.2312602 73.3630487,57.446256 73.0750677,57.8416135 L73.0486667,57.88 L73.0933478,57.6527293 C73.4451963,55.7779023 73.6336865,54.2711116 73.6588185,53.1323573 L73.6617184,52.876101 C73.6617184,52.7319118 73.6560856,52.5912359 73.648108,52.4518649 L73.6087012,51.8482047 L71.6663454,51.8482047 C71.7032967,52.181664 71.6856243,52.5232169 71.5844097,52.85182 L71.5844097,52.85182 L69.6982842,58.9220735 C69.3801812,59.9354012 68.4483645,60.624982 67.3960542,60.624982 L67.3960542,60.624982 L57.0191504,60.624982 C56.1596298,60.624982 55.3659791,60.1636427 54.9338089,59.4157875 L54.9338089,59.4157875 L51.4378896,53.3455339 C51.1744104,52.8841946 51.0924748,52.3564873 51.1470985,51.8482047 L51.1470985,51.8482047 L48.8496883,51.8482047 C48.9059186,52.3629622 48.823983,52.8841946 48.5605038,53.3455339 L48.5605038,53.3455339 L45.0645845,59.4157875 C44.6324144,60.1636427 43.8387636,60.624982 42.979243,60.624982 L42.979243,60.624982 L32.6023392,60.624982 C31.5452092,60.624982 30.6166056,59.9354012 30.3017158,58.9220735 L30.3017158,58.9220735 L28.4139837,52.85182 C28.3111625,52.5232169 28.2950967,52.181664 28.3320481,51.8482047 L28.3320481,51.8482047 Z M26.9476667,57.879 L26.9822788,57.9288778 C27.2482977,58.3457014 27.3794315,58.9392753 27.3756802,59.7095994 L27.3713129,59.9240701 L27.3713129,59.9240701 C27.2333612,59.2990228 27.1092046,58.7050121 26.9988433,58.1420379 L26.9476667,57.879 Z M73.0486667,57.88 L73.0092521,58.0919149 C72.9802536,58.2404878 72.9502885,58.3912385 72.9193568,58.5441668 L72.8236617,59.0094852 L72.8236617,59.0094852 L72.6653838,58.9764125 C72.6681141,58.9633462 72.6704542,58.9502014 72.672401,58.9369957 C72.7297076,58.5482775 72.8365065,58.2244894 72.9927977,57.9656316 L73.0486667,57.88 Z" id="Combined-Shape" fill="#3B3C43" fill-rule="nonzero" mask="url(#mask-3)"></path>
            </g>
        </g>
    </g>
</svg>