<?xml version="1.0" encoding="UTF-8"?>
<svg width="12px" height="12px" viewBox="0 0 12 12" version="1.1" xmlns="http://www.w3.org/2000/svg" xmlns:xlink="http://www.w3.org/1999/xlink">
    <title>C3703310-0FD0-46C9-A96B-8B61F21363E9</title>
    <g id="UI" stroke="none" stroke-width="1" fill="none" fill-rule="evenodd">
        <g id="UI-_-Puerto-de-montaña-(altimetria)-_-Desktop-HD" transform="translate(-771.000000, -433.000000)" fill="#909199" fill-rule="nonzero">
            <g id="Group-19" transform="translate(250.000000, 350.000000)">
                <g id="Group-15" transform="translate(521.000000, 23.000000)">
                    <g id="Group-23" transform="translate(0.000000, 57.000000)">
                        <path d="M5.20519724,3.52025253 L0.0938022532,13.6385007 C0.0321151922,13.7691322 0,13.9131768 0,14.0592271 C0,14.5788016 0.397798445,15 0.888507695,15 L11.1112977,15 C11.2492341,15 11.3852763,14.9659957 11.5086504,14.90068 C11.9475541,14.6683192 12.125455,14.1032223 11.9060031,13.6385007 L6.79460813,3.52025253 C6.70863283,3.3381872 6.56920599,3.19055878 6.3972554,3.09952612 C5.95835171,2.86716533 5.42464909,3.05553097 5.20519724,3.52025253 Z M5.99990268,4.36091436 L8.90104859,9.79954043 L1.1756613,13.8710726 L5.99990268,4.36091436 Z" id="pendiente-media"></path>
                    </g>
                </g>
            </g>
        </g>
    </g>
</svg>