<svg id="Capa_1" data-name="Capa 1" xmlns="http://www.w3.org/2000/svg" viewBox="0 0 48 48"><defs><style>.cls-1{fill:none;}.cls-2{fill:#fff;fill-rule:evenodd;}</style></defs><g id="UI"><g id="UI-_-Puerto-de-montaña-_altimetria_-_-Desktop-HD" data-name="UI-_-Puerto-de-montaña-(altimetria)-_-Desktop-HD"><g id="Print"><polygon id="bounds" class="cls-1" points="48 0 0 0 0 48 48 48 48 0"/><path class="cls-2" d="M32.78,17.94A1.22,1.22,0,0,1,34,19.16v7.28a1.22,1.22,0,0,1-1.22,1.22H30.59V33H18.41V27.66H16.22A1.22,1.22,0,0,1,15,26.44V19.16a1.22,1.22,0,0,1,1.22-1.22Zm-3.16,5.83H19.38V32H29.62ZM29.86,16a.73.73,0,0,1,.73.73v.73H18.41v-.73a.73.73,0,0,1,.73-.73Z"/></g></g></g></svg>