<?xml version="1.0" encoding="UTF-8"?>
<svg width="24px" height="20px" viewBox="0 0 24 20" version="1.1" xmlns="http://www.w3.org/2000/svg" xmlns:xlink="http://www.w3.org/1999/xlink">
    <title>F6C753FC-D74B-40C7-8508-290DA0E4B421</title>
    <g id="UI" stroke="none" stroke-width="1" fill="none" fill-rule="evenodd">
        <g id="UI-_-Incicio-_-Mobile" transform="translate(-16.000000, -268.000000)" fill="#E7004C" fill-rule="nonzero">
            <g id="Suggestions" transform="translate(8.000000, 253.000000)">
                <path d="M17.3077532,16.1816678 L17.3429056,16.2186527 C17.3564513,16.2336568 17.3697448,16.2492802 17.3827705,16.2655111 C17.3937256,16.2791536 17.4046859,16.2934926 17.4154402,16.3082698 C17.428547,16.3262695 17.4415215,16.345188 17.4541629,16.3647611 L17.4597552,16.3734968 C17.4853018,16.4137576 17.5094557,16.4567255 17.5320606,16.5022821 L17.5320606,16.5022821 L25.9083392,33.379029 C26.0891348,33.7435064 26.1150331,34.1432207 25.9794091,34.4761589 C25.9478179,34.5537108 25.9091296,34.6235562 25.8642022,34.6850776 C25.851779,34.7020862 25.8389274,34.7184013 25.8256203,34.7340718 C25.8159685,34.7454374 25.8060831,34.7564576 25.7959651,34.7671342 C25.7827485,34.7810721 25.769311,34.7942637 25.7555016,34.8068731 C25.7395428,34.8214275 25.7234571,34.8349213 25.7069178,34.8476565 C25.6973266,34.8550557 25.687036,34.8625787 25.6765801,34.8698138 C25.6564051,34.8837657 25.6358001,34.8965443 25.6146247,34.9082459 C25.6041341,34.9140375 25.593765,34.9194368 25.5832666,34.9245818 C25.5737995,34.9292275 25.5638896,34.9338135 25.55387,34.9381756 L25.5213362,34.9514059 L25.5213362,34.9514059 L25.4955902,34.9606011 C25.4907282,34.9622351 25.4858436,34.9638194 25.4809368,34.9653539 C25.4605184,34.971746 25.4395005,34.9773219 25.4181128,34.9820003 C25.4071022,34.9844064 25.3961524,34.9865471 25.3851104,34.9884545 L25.3686905,34.9911085 C25.3295412,34.9970041 25.2892711,35 25.2480137,35 L25.296,34.996 L25.2480137,35 L8.82227937,35 C8.49551131,35 8.22886245,34.8107647 8.09077447,34.4804366 C8.05555855,34.3962131 8.03063759,34.3074863 8.01592626,34.2159433 C7.99902171,34.1104603 7.99561903,34.0018077 8.00550502,33.8920003 C8.01604258,33.7754713 8.0413544,33.6582066 8.08133838,33.5426535 C8.10230224,33.4831709 8.12288053,33.4331251 8.14623963,33.3836692 L8.14623963,33.3836692 L16.1139486,16.5232357 C16.2819319,16.1678938 16.5417914,15.9640852 16.8270016,15.9640852 L16.8270016,15.9640852 C16.9318393,15.9640852 17.033669,15.9919254 17.1289533,16.0449224 C17.1758739,16.0709835 17.2215467,16.1034394 17.2651773,16.1417609 L17.2650131,16.1416166 L17.2990775,16.1731174 L17.2990775,16.1731174 L17.3077532,16.1816678 L17.3077532,16.1816678 Z M22.3106169,15 C22.5607677,15 22.7945906,15.1387724 22.9683997,15.3858877 L23.0501008,15.518333 L31.835356,31.7721894 C32.0249791,32.1232146 32.0521419,32.5081762 31.9098959,32.8288263 C31.7879708,33.1036691 31.5652512,33.2780111 31.2865802,33.322214 L31.1427897,33.3333333 L27.148,33.333 L22.9804512,24.9316302 C23.5412757,24.3039787 23.9183133,23.9018653 24.1115641,23.72529 L24.161269,23.6814067 C24.3437619,23.5271908 24.6528994,23.5878766 24.8223063,23.7665264 C25.1036676,24.0633176 25.906398,24.8495457 27.2304976,26.1252107 L22.3178904,17.035 L20.659,20.257 L19.91,18.748 L21.5627486,15.5385133 C21.7389338,15.1962864 22.0114811,15 22.3106169,15 Z M16.8357852,18.1433333 L15.2807959,21.4349503 C15.2981845,21.4710938 15.3121053,21.5137634 15.3217222,21.562986 C15.4028941,21.9782826 15.4770792,22.5782252 15.5493671,23.2091781 L15.6355277,23.9713739 C15.7071121,24.6025534 15.7788352,25.203289 15.8557865,25.6199451 C15.911635,25.9226491 16.1798169,26.0679471 16.3773123,25.8988679 C16.5830754,25.7227702 16.8481824,25.4343089 17.1247833,25.1226277 L17.5423236,24.648834 C17.8184558,24.336219 18.0821567,24.0449561 18.2855764,23.8641892 C18.4808816,23.6905422 18.8314674,23.7448477 19.0039405,23.9566318 C19.3314454,24.3587859 19.9269253,25.0772697 20.7903803,26.1120832 L16.8357852,18.1433333 Z" id="puertos"></path>
            </g>
        </g>
    </g>
</svg>