<?xml version="1.0" encoding="UTF-8"?>
<svg width="33px" height="33px" viewBox="0 0 33 33" version="1.1" xmlns="http://www.w3.org/2000/svg" xmlns:xlink="http://www.w3.org/1999/xlink">
    <title>E9AC708E-B329-4AB1-B63D-30FBCFA30A96</title>
    <g id="UI" stroke="none" stroke-width="1" fill="none" fill-rule="evenodd">
        <g id="UI-_-Incicio-_-Mobile" transform="translate(-144.000000, -487.000000)" fill="#E7004C">
            <path d="M160.5,487 C169.612698,487 177,494.387302 177,503.5 C177,512.612698 169.612698,520 160.5,520 C151.387302,520 144,512.612698 144,503.5 C144,494.387302 151.387302,487 160.5,487 Z M160.5,494.5 C159.671573,494.5 159,495.171573 159,496 L159,496 L159,502 L153,502 C152.171573,502 151.5,502.671573 151.5,503.5 C151.5,504.328427 152.171573,505 153,505 L153,505 L159,505 L159,511 C159,511.828427 159.671573,512.5 160.5,512.5 C161.328427,512.5 162,511.828427 162,511 L162,511 L162,505 L168,505 C168.828427,505 169.5,504.328427 169.5,503.5 C169.5,502.671573 168.828427,502 168,502 L168,502 L162,502 L162,496 C162,495.171573 161.328427,494.5 160.5,494.5 Z" id="puertos-nuevos"></path>
        </g>
    </g>
</svg>