<?xml version="1.0" encoding="UTF-8"?>
<svg width="33px" height="33px" viewBox="0 0 33 33" version="1.1" xmlns="http://www.w3.org/2000/svg" xmlns:xlink="http://www.w3.org/1999/xlink">
    <title>A0EB5D15-6B0E-4EC6-B798-490AEC24900D</title>
    <g id="UI" stroke="none" stroke-width="1" fill="none" fill-rule="evenodd">
        <g id="UI-_-Resultados-de-busqueda/Buscador-_-Desktop-HD" transform="translate(-704.000000, -854.000000)" fill="#E7004C" stroke="#E7004C" stroke-width="1.5">
            <path d="M720.5,854.75 C724.849242,854.75 728.786742,856.512879 731.636932,859.363068 C734.487121,862.213258 736.25,866.150758 736.25,870.5 C736.25,874.849242 734.487121,878.786742 731.636932,881.636932 C728.786742,884.487121 724.849242,886.25 720.5,886.25 C716.150758,886.25 712.213258,884.487121 709.363068,881.636932 C706.512879,878.786742 704.75,874.849242 704.75,870.5 C704.75,866.150758 706.512879,862.213258 709.363068,859.363068 C712.213258,856.512879 716.150758,854.75 720.5,854.75 Z M721.211016,860.92032 C721.043037,860.820354 720.7764,860.711731 719.668318,861.005593 C719.408446,861.191036 719.221877,861.463203 719.157518,861.816927 L719.157518,861.816927 L718.03301,872.675088 L717.825589,872.538872 C716.748354,871.831965 716.135303,871.438271 715.987411,871.356066 C715.44847,871.056496 714.971692,870.97365 714.526565,871.152321 C714.168301,871.296126 713.947067,871.544187 713.840437,871.815938 C713.724917,872.110346 713.720102,872.467356 713.955704,872.854631 L713.955704,872.854631 L719.48731,879.856879 L719.590079,879.94809 C719.84426,880.148985 720.195735,880.263764 720.572839,880.238143 C720.919127,880.214615 721.282379,880.073652 721.575002,879.793013 L721.575002,879.793013 L727.094249,872.777003 L727.157255,872.655694 C727.230022,872.492553 727.258028,872.324138 727.243688,872.154209 C727.229946,871.991375 727.177572,871.822427 727.062578,871.65415 C726.951588,871.491732 726.760885,871.305729 726.274949,871.088454 C725.796846,870.970512 725.422352,871.083806 724.96458,871.385155 C724.837434,871.468855 724.197805,871.884979 722.920957,872.677488 L722.920957,872.677488 L721.832748,861.737831 L721.805967,861.62563 C721.728758,861.365712 721.548598,861.12185 721.267416,860.954573 L721.267416,860.954573 Z" id="lista-resultados"></path>
        </g>
    </g>
</svg>