<svg id="Capa_1" data-name="Capa 1" xmlns="http://www.w3.org/2000/svg" viewBox="0 0 48 48"><defs><style>.cls-1{fill:none;}.cls-2{fill:#fff;fill-rule:evenodd;}</style></defs><g id="UI"><g id="UI-_-Puerto-de-montaña-_altimetria_-_-Desktop-HD" data-name="UI-_-Puerto-de-montaña-(altimetria)-_-Desktop-HD"><g id="Share"><polygon id="Shape" class="cls-1" points="0 0 48 0 48 48 0 48 0 0"/><path id="Shape-2" data-name="Shape" class="cls-2" d="M29.17,28.43a2.76,2.76,0,0,0-1.85.73l-6.74-3.95a2.54,2.54,0,0,0,0-1.34L27.24,20a2.79,2.79,0,0,0,1.93.77,2.86,2.86,0,1,0-2.84-2.86,3,3,0,0,0,.09.67l-6.66,3.92a2.79,2.79,0,0,0-1.93-.77,2.86,2.86,0,1,0,1.93,4.95l6.72,4a3.37,3.37,0,0,0-.07.62,2.76,2.76,0,1,0,2.76-2.78Z"/></g></g></g></svg>