<?xml version="1.0" encoding="UTF-8"?>
<svg width="414px" height="199px" viewBox="0 0 414 199" version="1.1" xmlns="http://www.w3.org/2000/svg" xmlns:xlink="http://www.w3.org/1999/xlink">
    <title>2FB279B9-9706-4580-A119-5FD581A8E6FC</title>
    <defs>
        <path d="M4.25,144.85 L4.25,130.8 L8.35,130.8 L19.8,144.85 L25.3,144.85 L12,128.8 L24.8,113.5 L19.6,113.5 L8.35,127.05 L4.25,127.05 L4.25,113.5 L1.70530257e-13,113.5 L1.70530257e-13,144.85 L4.25,144.85 Z M32.95,144.85 L32.95,120.45 L50.3,144.85 L54.6,144.85 L54.6,113.5 L50.6,113.5 L50.6,138.25 L33.25,113.5 L28.95,113.5 L28.95,144.85 L32.95,144.85 Z M74.45,145.25 C79.3833333,145.25 82.9416667,143.983333 85.125,141.45 C87.3083333,138.916667 88.4,134.8 88.4,129.1 C88.4,123.066667 87.4,118.875 85.4,116.525 C83.4,114.175 79.75,113 74.45,113 C69.5166667,113 65.95,114.266667 63.75,116.8 C61.55,119.333333 60.45,123.433333 60.45,129.1 C60.45,135.166667 61.4583333,139.375 63.475,141.725 C65.4916667,144.075 69.15,145.25 74.45,145.25 Z M74.45,141.25 C72.0833333,141.25 70.2833333,141.016667 69.05,140.55 C67.8166667,140.083333 66.8833333,139.283333 66.25,138.15 C65.7166667,137.283333 65.3333333,136.125 65.1,134.675 C64.8666667,133.225 64.75,131.366667 64.75,129.1 C64.75,124.533333 65.4333333,121.35 66.8,119.55 C68.1666667,117.75 70.7166667,116.85 74.45,116.85 C76.85,116.85 78.6583333,117.091667 79.875,117.575 C81.0916667,118.058333 82.0166667,118.866667 82.65,120 C83.15,120.9 83.5166667,122.075 83.75,123.525 C83.9833333,124.975 84.1,126.833333 84.1,129.1 C84.1,133.633333 83.4166667,136.791667 82.05,138.575 C80.6833333,140.358333 78.15,141.25 74.45,141.25 Z M104.55,144.85 L109.55,128.05 C109.916667,126.816667 110.266667,125.5 110.6,124.1 C110.933333,122.7 111.3,121.033333 111.7,119.1 C112.1,121.033333 112.466667,122.7 112.8,124.1 C113.133333,125.5 113.483333,126.816667 113.85,128.05 L113.85,128.05 L118.9,144.85 L123.7,144.85 L132.4,113.5 L127.95,113.5 L122.8,133.35 C122.7,133.75 122.525,134.558333 122.275,135.775 C122.025,136.991667 121.716667,138.616667 121.35,140.65 C121.302,140.407333 121.255387,140.17224 121.21016,139.94472 L121.07864,139.28488 C120.63288,137.05496 120.34,135.66 120.2,135.1 C120.033333,134.433333 119.883333,133.85 119.75,133.35 L119.75,133.35 L114,113.5 L109.55,113.5 L103.85,133.35 C103.716667,133.85 103.566667,134.45 103.4,135.15 C103.233333,135.85 102.85,137.716667 102.25,140.75 C101.716667,137.783333 101.375,135.941667 101.225,135.225 C101.075,134.508333 100.933333,133.883333 100.8,133.35 L100.8,133.35 L95.6,113.5 L91,113.5 L99.7,144.85 L104.55,144.85 Z M155.9,144.85 L155.9,132.95 L167.55,113.5 L163.15,113.5 L153.85,129.15 L144.5,113.5 L139.7,113.5 L151.65,132.95 L151.65,144.85 L155.9,144.85 Z M182.65,145.25 C187.583333,145.25 191.141667,143.983333 193.325,141.45 C195.508333,138.916667 196.6,134.8 196.6,129.1 C196.6,123.066667 195.6,118.875 193.6,116.525 C191.6,114.175 187.95,113 182.65,113 C177.716667,113 174.15,114.266667 171.95,116.8 C169.75,119.333333 168.65,123.433333 168.65,129.1 C168.65,135.166667 169.658333,139.375 171.675,141.725 C173.691667,144.075 177.35,145.25 182.65,145.25 Z M182.65,141.25 C180.283333,141.25 178.483333,141.016667 177.25,140.55 C176.016667,140.083333 175.083333,139.283333 174.45,138.15 C173.916667,137.283333 173.533333,136.125 173.3,134.675 C173.066667,133.225 172.95,131.366667 172.95,129.1 C172.95,124.533333 173.633333,121.35 175,119.55 C176.366667,117.75 178.916667,116.85 182.65,116.85 C185.05,116.85 186.858333,117.091667 188.075,117.575 C189.291667,118.058333 190.216667,118.866667 190.85,120 C191.35,120.9 191.716667,122.075 191.95,123.525 C192.183333,124.975 192.3,126.833333 192.3,129.1 C192.3,133.633333 191.616667,136.791667 190.25,138.575 C188.883333,140.358333 186.35,141.25 182.65,141.25 Z M214.6,145.25 C218.9,145.25 222.075,144.2 224.125,142.1 C226.175,140 227.2,136.75 227.2,132.35 L227.2,132.35 L227.2,113.5 L222.95,113.5 L222.95,132.35 C222.95,135.65 222.325,137.958333 221.075,139.275 C219.825,140.591667 217.666667,141.25 214.6,141.25 C211.566667,141.25 209.441667,140.591667 208.225,139.275 C207.008333,137.958333 206.4,135.65 206.4,132.35 L206.4,132.35 L206.4,113.5 L202.15,113.5 L202.15,132.35 C202.15,136.85 203.141667,140.125 205.125,142.175 C207.108333,144.225 210.266667,145.25 214.6,145.25 Z M238.35,144.85 L238.35,133.6 L245.3,133.6 L252.9,144.85 L258,144.85 L249.8,133.1 C252.266667,132.533333 254.108333,131.441667 255.325,129.825 C256.541667,128.208333 257.15,126.033333 257.15,123.3 C257.15,119.8 256.191667,117.291667 254.275,115.775 C252.358333,114.258333 249.183333,113.5 244.75,113.5 L244.75,113.5 L234.1,113.5 L234.1,144.85 L238.35,144.85 Z M244.75,129.85 L238.35,129.85 L238.35,117.35 L244.75,117.35 C247.683333,117.35 249.766667,117.808333 251,118.725 C252.233333,119.641667 252.85,121.166667 252.85,123.3 C252.85,125.6 252.216667,127.266667 250.95,128.3 C249.683333,129.333333 247.616667,129.85 244.75,129.85 L244.75,129.85 Z M281.1,144.85 L286.1,128.05 C286.466667,126.816667 286.816667,125.5 287.15,124.1 C287.483333,122.7 287.85,121.033333 288.25,119.1 C288.65,121.033333 289.016667,122.7 289.35,124.1 C289.683333,125.5 290.033333,126.816667 290.4,128.05 L290.4,128.05 L295.45,144.85 L300.25,144.85 L308.95,113.5 L304.5,113.5 L299.35,133.35 C299.25,133.75 299.075,134.558333 298.825,135.775 C298.575,136.991667 298.266667,138.616667 297.9,140.65 C297.852,140.407333 297.805387,140.17224 297.76016,139.94472 L297.62864,139.28488 C297.18288,137.05496 296.89,135.66 296.75,135.1 C296.583333,134.433333 296.433333,133.85 296.3,133.35 L296.3,133.35 L290.55,113.5 L286.1,113.5 L280.4,133.35 C280.266667,133.85 280.116667,134.45 279.95,135.15 C279.783333,135.85 279.4,137.716667 278.8,140.75 C278.266667,137.783333 277.925,135.941667 277.775,135.225 C277.625,134.508333 277.483333,133.883333 277.35,133.35 L277.35,133.35 L272.15,113.5 L267.55,113.5 L276.25,144.85 L281.1,144.85 Z M313.2,144.85 L316.05,137.3 L330.4,137.3 L333.25,144.85 L337.75,144.85 L325.5,113.5 L321.1,113.5 L308.7,144.85 L313.2,144.85 Z M329,133.55 L317.45,133.55 L320.65,125 C321.116667,123.7 321.575,122.4 322.025,121.1 C322.475,119.8 322.866667,118.566667 323.2,117.4 C323.5,118.366667 323.841667,119.416667 324.225,120.55 C324.608333,121.683333 325.133333,123.166667 325.8,125 L325.8,125 L329,133.55 Z M350.45,144.85 L350.45,132.95 L362.1,113.5 L357.7,113.5 L348.4,129.15 L339.05,113.5 L334.25,113.5 L346.2,132.95 L346.2,144.85 L350.45,144.85 Z" id="path-1"></path>
        <filter x="-9.9%" y="-111.6%" width="120.7%" height="323.3%" filterUnits="objectBoundingBox" id="filter-2">
            <feMorphology radius="2" operator="dilate" in="SourceAlpha" result="shadowSpreadOuter1"></feMorphology>
            <feOffset dx="0" dy="0" in="shadowSpreadOuter1" result="shadowOffsetOuter1"></feOffset>
            <feGaussianBlur stdDeviation="10" in="shadowOffsetOuter1" result="shadowBlurOuter1"></feGaussianBlur>
            <feColorMatrix values="0 0 0 0 1   0 0 0 0 1   0 0 0 0 1  0 0 0 0.5 0" type="matrix" in="shadowBlurOuter1"></feColorMatrix>
        </filter>
        <path d="M181.500311,-2.45137244e-12 L193.761472,21.2952216 C197.791772,28.2962882 197.007585,37.0730957 191.794168,43.2465602 L191.794168,43.2465602 L160.82436,79.9344356 C158.026886,83.1578589 154.809357,83.9991301 151.177985,83.9991301 L151.177985,83.9991301 L133,83.9991301 L181.500311,-2.45137244e-12 Z M207.72709,45.4233029 L230,84 L216.310897,84 C202.578298,84 194.005676,69.1292574 200.881918,57.2483206 L200.881918,57.2483206 L207.72709,45.4233029 Z" id="path-3"></path>
        <filter x="-40.1%" y="-47.6%" width="180.3%" height="190.5%" filterUnits="objectBoundingBox" id="filter-4">
            <feMorphology radius="2" operator="dilate" in="SourceAlpha" result="shadowSpreadOuter1"></feMorphology>
            <feOffset dx="0" dy="0" in="shadowSpreadOuter1" result="shadowOffsetOuter1"></feOffset>
            <feGaussianBlur stdDeviation="10" in="shadowOffsetOuter1" result="shadowBlurOuter1"></feGaussianBlur>
            <feColorMatrix values="0 0 0 0 1   0 0 0 0 1   0 0 0 0 1  0 0 0 0.5 0" type="matrix" in="shadowBlurOuter1"></feColorMatrix>
        </filter>
    </defs>
    <g id="UI" stroke="none" stroke-width="1" fill="none" fill-rule="evenodd">
        <g id="UI-_-Inicio-_-Desktop-HD" transform="translate(-515.000000, -196.000000)">
            <g id="Symbol_Slogan" transform="translate(539.000000, 225.000000)">
                <g id="KNOWYOURWAY" fill-rule="nonzero">
                    <use fill="black" fill-opacity="1" filter="url(#filter-2)" xlink:href="#path-1"></use>
                    <use fill="#212227" xlink:href="#path-1"></use>
                    <use fill="#212227" xlink:href="#path-1"></use>
                </g>
                <g id="Combined-Shape">
                    <use fill="black" fill-opacity="1" filter="url(#filter-4)" xlink:href="#path-3"></use>
                    <use fill="#212227" fill-rule="evenodd" xlink:href="#path-3"></use>
                </g>
            </g>
        </g>
    </g>
</svg>