<?xml version="1.0" encoding="UTF-8"?>
<svg width="12px" height="17px" viewBox="0 0 12 17" version="1.1" xmlns="http://www.w3.org/2000/svg" xmlns:xlink="http://www.w3.org/1999/xlink">
    <title>2298566A-D740-415F-B7E5-C803FC260234</title>
    <g id="UI" stroke="none" stroke-width="1" fill="none" fill-rule="evenodd">
        <g id="UI-_-Crear-puerto-_-Paso2-_-Desktop-HD" transform="translate(-920.000000, -1130.000000)" fill="#585A65">
            <g id="Group-2" transform="translate(490.000000, 874.000000)">
                <g id="eliminar" transform="translate(412.000000, 240.000000)">
                    <path d="M29.5,21 L28.7665145,31.9834998 C28.7316793,32.5047975 28.3177894,32.934443 27.8176261,32.9931613 L27.7008056,33 L20.032722,33 C19.5210234,33 19.0817776,32.6069099 19.0016427,32.1018994 L18.9896552,31.9834998 L18.501,21 L29.5,21 Z M25.6684055,16 C26.4038248,16 27,16.6563668 27,17.4623656 L26.999,18 L29.3204455,18 C29.6957531,18 30,18.3125 30,18.6771088 L30,20 L18,20 L18,18.6771088 C18,18.3031519 18.2966309,18 18.6795545,18 L20.999,18 L21,17.4623656 C21,16.6547234 21.5972385,16 22.3315945,16 L25.6684055,16 Z" id="icon_ios_trash_filled"></path>
                </g>
            </g>
        </g>
    </g>
</svg>